/* XPM */
static char *e6522953358b4919998f68cafb4a4245HgrorqtNTBFNs3cQ[] = {
/* columns rows colors chars-per-pixel */
"64 64 255 2 ",
"   c #000000",
".  c #0C0000",
"X  c #020D01",
"o  c #140100",
"O  c #180501",
"+  c #071804",
"@  c #151906",
"#  c #181E13",
"$  c #280200",
"%  c #380400",
"&  c #311902",
"*  c #062704",
"=  c #182D0F",
"-  c #023402",
";  c #033A03",
":  c #0A3A06",
">  c #153908",
",  c #2F2F0D",
"<  c #430400",
"1  c #470A00",
"2  c #490D00",
"3  c #4C1500",
"4  c #521E00",
"5  c #572500",
"6  c #5D3203",
"7  c #50330D",
"8  c #613701",
"9  c #084706",
"0  c #16480A",
"q  c #025302",
"w  c #025B02",
"e  c #0A5808",
"r  c #155A08",
"t  c #184B13",
"y  c #1B5914",
"u  c #255213",
"i  c #036401",
"p  c #096605",
"a  c #046C02",
"s  c #0B6C03",
"d  c #0C640C",
"f  c #0D6B0A",
"g  c #12630C",
"h  c #166908",
"j  c #027301",
"k  c #0C7303",
"l  c #067A07",
"z  c #0D7D02",
"x  c #0D730A",
"c  c #177709",
"v  c #137B0C",
"b  c #196612",
"n  c #0C7111",
"m  c #1A7614",
"M  c #23790B",
"N  c #256817",
"B  c #326B13",
"V  c #277917",
"C  c #337B18",
"Z  c #33522B",
"A  c #375828",
"S  c #2A6F22",
"D  c #366529",
"F  c #347925",
"G  c #5C4717",
"H  c #6C4A00",
"J  c #755408",
"K  c #684D11",
"L  c #7C5C14",
"P  c #407918",
"I  c #7F6016",
"U  c #505B34",
"Y  c #4A7630",
"T  c #6D7433",
"R  c #626C45",
"E  c #81621A",
"W  c #876823",
"Q  c #876824",
"!  c #886925",
"~  c #8F7337",
"^  c #957D4E",
"/  c #0C8303",
"(  c #0A8805",
")  c #138303",
"_  c #148B03",
"`  c #14830B",
"'  c #1B830C",
"]  c #198A09",
"[  c #1A9606",
"{  c #10910B",
"}  c #1C8813",
"|  c #24840C",
" . c #238D0C",
".. c #288909",
"X. c #328B0A",
"o. c #279807",
"O. c #24940C",
"+. c #2B930C",
"@. c #35990B",
"#. c #288517",
"$. c #248C12",
"%. c #2A8B13",
"&. c #348A19",
"*. c #2B9312",
"=. c #289714",
"-. c #389617",
";. c #349C12",
":. c #14A004",
">. c #27A406",
",. c #2DA30C",
"<. c #3AA907",
"1. c #35A40C",
"2. c #3BA40D",
"3. c #3AB20A",
"4. c #2EAA17",
"5. c #3DA414",
"6. c #3AA718",
"7. c #2F8C28",
"8. c #388829",
"9. c #3A9925",
"0. c #3BA526",
"q. c #3DA430",
"w. c #458C1A",
"e. c #4E9913",
"r. c #439A19",
"t. c #47A809",
"y. c #44AB0B",
"u. c #54AE0C",
"i. c #47B507",
"p. c #4BB30D",
"a. c #56B809",
"s. c #47A817",
"d. c #53AB16",
"f. c #4BB417",
"g. c #54B413",
"h. c #57B817",
"j. c #5BBC1B",
"k. c #64BC0A",
"l. c #6BB310",
"z. c #65BB18",
"x. c #528D29",
"c. c #469827",
"v. c #468B36",
"b. c #499635",
"n. c #569938",
"m. c #609E38",
"M. c #49A926",
"N. c #55A929",
"B. c #49B325",
"V. c #58B727",
"C. c #5BBD23",
"Z. c #4BA734",
"A. c #57A936",
"S. c #4DB336",
"D. c #5AB438",
"F. c #65B829",
"G. c #66A936",
"H. c #65BB3A",
"J. c #76BB37",
"K. c #48C00C",
"L. c #5BC309",
"P. c #5AC214",
"I. c #67C609",
"U. c #71D00E",
"Y. c #7AD609",
"T. c #66C516",
"R. c #74CB19",
"E. c #78D318",
"W. c #7EE10F",
"Q. c #5BC228",
"!. c #69C626",
"~. c #79CA29",
"^. c #78D229",
"/. c #6BC638",
"(. c #76C939",
"). c #6DD73D",
"_. c #7AD338",
"`. c #579A46",
"'. c #679E4A",
"]. c #59A745",
"[. c #5AB347",
"{. c #63AD4B",
"}. c #67B945",
"|. c #75BC46",
" X c #66B054",
".X c #76BA58",
"XX c #708F66",
"oX c #77B767",
"OX c #5DC04B",
"+X c #6BC546",
"@X c #76C747",
"#X c #78D446",
"$X c #6CC853",
"%X c #78C957",
"&X c #79D257",
"*X c #78C765",
"=X c #7ED068",
"-X c #81BE39",
";X c #85D515",
":X c #94E513",
">X c #83D62B",
",X c #8DCF31",
"<X c #86D638",
"1X c #92DC3B",
"2X c #91E533",
"3X c #9D8650",
"4X c #A38A5B",
"5X c #8BB24C",
"6X c #A99266",
"7X c #AE9870",
"8X c #9CA26E",
"9X c #85CD47",
"0X c #86D648",
"qX c #93DA4A",
"wX c #86CD58",
"eX c #89D857",
"rX c #94DA59",
"tX c #A3DF56",
"yX c #94E14A",
"uX c #8CE354",
"iX c #96E359",
"pX c #A6EB49",
"aX c #A2E859",
"sX c #85CB66",
"dX c #87D768",
"fX c #95D966",
"gX c #8EC972",
"hX c #8CD974",
"jX c #97DC77",
"kX c #A4DB75",
"lX c #8EE264",
"zX c #98E368",
"xX c #99E577",
"cX c #A4E667",
"vX c #A5E979",
"bX c #B2F371",
"nX c #D3C778",
"mX c #94BF80",
"MX c #96DA80",
"NX c #A7DB87",
"BX c #A6D690",
"VX c #9EE386",
"CX c #A6E985",
"ZX c #A9EC8C",
"AX c #B5ED8B",
"SX c #B6F38A",
"DX c #B3E994",
"FX c #B7F396",
"GX c #B8EFA5",
"HX c #C3F491",
"JX c #F0EC87",
"KX c #FFFC93",
"LX c #C6EFAE",
"PX c #C7F6A7",
"IX c #F3EFAD",
/* pixels */
"2.rXb D.a.s a /.M.VX/.w.b.i.<.xXH.] @Xg t.@Xj.F.r x +X_ T.=.l hXD.k dX$XDXuX<Xo.A.s.O.c D.f.| ~.pXR.%XrXF.#XVXgX] m -.M.l.%.h h ",
"*.*.=.M @.1.dXV _ /  Xh ~.w.H./.X._.hXJ.C._.b -.M.+XT.#X%X$.j 0.a.!.(.rX~.rXA.~.F._.F.GX@X/.0X|.m hXC c.vX*XI.}.) Y.l d e.+.yXfX",
"o.q ^.B.M.k 5.@.p &.N X.@.v.h ) c.0X2.s.cXf.' ] O.=.0.vXC.a.e 5.X.eXB.AXM rXA.9XrX,X!.9XF | I.2X.X>Xt.&XwXeXhXM ; a.&Xy.k.9XZ.F.",
"wX3.O.<.v D.$.e H.q /.B.,.#X; h #.eXo.6.@.6.xX6.M 5.C.L.E.@X<XB.hX/.eX;X1XB.C y dXk.@XqXJ.|.V.+X2X8...R.,.F e.9X0 dXJ._ ) $.`.N.",
"s.s._ y o.c S.c *.*.p.` j.^.-.@.h u.> dXjX!.J.t.~.M.n o.H.Z.m ,.#.$Xs.v M A.wXO./.F.qXeXdXaXd.Y.I.;X;.<X*.eXV.~.%.z.%XD.@.(.~.c ",
"r ) z / N.&X5.i.(.s D.) k q 9 x +.J.p.,.q T.i.FXz.| a.hX).dXT.@.z jXVXR.G.t.l.LXn.#X<.I.&X1.g.VXsX^.6.S.~.I.h.p.hXz.0Xd.@XT.#Xd.",
"v C.$XM _ o.w j 0 B.q o.y ] #X!.[ c / z &.k V.=.7.%.bXiX1.MX/._ N.!.g.2.xXJ.%X(./.0XfXt.Z.;XI.s.O.DX9 -.| p.w n.sX^.:XiXl.N.-.@X",
"#.Q.g.d.a j.g w.o.w 0.u Q.#.cXh.}.a V.h ,.g.@.vX!.J.+XE.V.#XdXI.F M.$X- Z.*.H.~.(.v LXg.ZX@.B.P.wXt.S.j.fX&.@Xa.vXN.c.yX,XqX(.rX",
"t.(.g...M s.o.I.;.k.6.] *XZ.#.S.L.jXeXp.A.V.c..   Z $X  X +XA ;.Y.].+X#X-.a.m ' s.%XrXT.p ].t.#._.-./.c.0X[ <.n.j.|.jXu.` h u.c ",
"- h @.9 v Z.q.d A.M r e b /.s.#.#.E.<.$X..s.c !.@             B   oXF R.].L.* M.8.xXi.x Y.] O.lXh.eXGXE.C.=.A.g.HXqXc.0 0X*.z.#.",
"N.s V.;.| &X$X-.h.H.d j.uXe O.w hXF.<X+X.         t       X A        X] eX| (.C #XZX/.1XP.=XxX7.o.vXU.f.D.`  .V..Xt.%.l.T.eXj.B ",
"6.f #.7.;.w o.D.j h.+.*.v b F.h.(.P.I.F q rXB.G.                    @   $.) =.g.0XP.$Xg.Z.o.yXM.[ 9 9.;.3.vXr *.N k cX%Xd.M.p.&.",
"e [ u.T.sXz hXs.) v v r [ ,.f w 2.7.y.9 Q.Y {.                    8X#   $X` /.) s.$X_ *X5.f t.%XeXd.gXeXl +.#Xx @XPXf eX..;Xt.zX",
"s.+ V b.s.0 &XV.} 9X| j.w 0 3.o.q r.H.d./.  ;.V.                          g ( oXf.ZXhXBXM.i.}.[ >.o.&X`.I.a.CXzX@.u.I.;.>.;XI.a.",
"- i.xX3.S.k &X+XM.+X[ x j N.` 9 x m GX3.9.( #             2 $             @ # = w.} =.v.[ O | vX0Xh.m /.} @.&.~.P. .jXk.u.d.s.f.",
"=.v.$.^.C.9 H.a.9.`.M n m g d.f.S p.* f [ R.T     5       Q L O O             .X    A   D n.jXz L.O.!.y._.$XT.d D.@.].9Xt.g.N.p ",
"+.t.v M.| 1.[ 9 s w./.V S.: #Xa.m &.0 0Xd =.w.    Q     ! L !     %                         x.5X+X1.:XZXNXgXFX0.M.c.@.kXg.N.z h ",
"Z.D.* !.&XdX3.{.C z.F X ] @Xa.F.z T._ 1.3./.  ,   ! ! ! ! 6 !     L 2 .   3X4X        > z _ I.  v oXe.<XFXA.] } z z d.G.}.+.N.|.",
"V.[ k *.$.] _ O.zX9 } r s.b...h.d.f.i.a.[ zXM.H   ! ! ! ! J H ! L !     % 7XH         |.      X c.  4.I.z.@.b.#.I.fXwX@Xm U.+Xx ",
"w }.9 6.w w ( * #XP.xX9.uXM.}.B.a.) C.) 3.T $ Q   ! ! ! ! !   E ! !     J 6X%               v -.9X  4X4.[ sXS.| &X} ;X=Xn.a.2.(.",
"m a ` e ( 9 C.M x L.p.* *.Z.i.| =XGXN Z   < I ! ! ! ! ! ! ! . 3 ! !     & 3X%             @.R @ 9X  4XM jXr.k +.+X%.] T.@X..AXrX",
"l c.N =.z @.>.s N } h.iXg.V Z.v.w p.  % H ! ! ! ! ! ! ! ! ! 4   Q Q   ! % ~ % %           O   e # o U MX~.;XvXV.9.d.g.h.&.u.hX9X",
"j o.6.*.>. ..X[ 5.v q.#Xh 0.1.=.Y . 5 ! ! ! ! ! ! ! ! ! ! ! L   5 ! ! ! ! $ %       Q 6     E Y   $ U F.M.s.( GXj.9.qXG.t.H.&.O.",
"q.g 9 k j %.;.3.9 / 6.>.g F $X  $ J ! ! ! ! ! ! ! ! ! ! ! ! !     ! ! ! ! ^ % .   7 ! ! ! .   !   $ ! eXAXS.rX<XV.zXAX9 |.<.zXt.",
"9 Q.j v k &.-.F 1.6.( d 8.q.    I ! ! ! ! ! ! ! ! ! ! ! ! ! ! $   J ! ! ! 3X      I   & ! ! o !   % ! /.vXLXo.X.NX/ R.DXeXhXk.n.",
"=.@Xe ; l a 4.y.P.[ ; jXi       ! ! ! ! ! ! ! ! ! Q ! ! ! ! ! 4   % ! ! ! 4X$   o E   JX! ! ! ! 2 o 4XzX!.F.V 9Xs.PXR.H.fXI.o.|.",
"- [ /.v K.3.dXq j +X-.}   8   Q ! ! ! ! ! ! ! ! ! 4 H ! ! ! Q J     ! ! ! ^ 3   J ! KX    E ! ! 3   7X .+XN &./.F.A.PXX.Y.r.M h ",
"q oXs.;.d ).S V.$.d.E.X   Q Q ! ! ! ! ! ! ! ! Q ! 5   E ! ! ! H     3 ! ! ! & o Q !   JX8XK L T T % t.8..X&X!.&.{.c @.&.t.k.0 ;X",
"s.}.[.D.+ e l y.p.s.S     ! ! ! ! ! ! ! ! ! Q Q ! 1   % ! ! ! 6       I E Q % o ! G ! $ !       JX% y C *./.o.a.i. X<.D./...r.,X",
"2.V.[ ( g f.( }.P.        ! ! ! 5 ! ! ! ! ! Q Q 3XL <   ! ! ! 2   2 < 8 ! J     ! , ! ~             @.a z.iXa.c V._.<.N : V.rX[.",
"c.@Xd t * 9.F           ! ! ! J . ! ! ! ! ^ 7X7X7XH <   ! ! ! $   2 1 < 4 < %   ! 6XKXKX            V  .h ].Q.s.d.c.p f l c _ ;X",
"/ %X9 f.y.p 3.      < ! ! ! !   o ! ! ! 7X7X7X7X7X4 <   ! ! !     < 6 5 H 5 < . $ IXLXnXKXG     J P N i.o.V q g.H.k hXH.!.jX1XeX",
"1.A.w 2.N.h         L   O ! L     J 7X7X7X7X7X7X~ < <   ! ! E   . <   , T.} , H     KXKXKX^ KXIX0 t.| bX+.c |.1.~.t R.P.F.:X@.F ",
"( -.eX* C ,               ! 4     ! 7X7X7X7X7X7X6 < 3 $ ! ! 8   2 2   = c iXw 0.r     R KXnXKX7 t.~.a.g o.<Xs y.P.sXw c h.0XvXjX",
"l f c / H.        o     7 ! $   2 5 ^ 7X7X7X4XJ < <   H E ! <   < <     o ] _ g._.[ R.        m p 7.f.` *XL.r.| b u. .c.c.N. .' ",
"n.X.V p.          < Q . ! ! O   < < 4 J L L 6 1 3 <   H E ! O               !.i.f.cX4.S.]   f.M =.a D.xXfX(.@Xs v.7.-.|.ZXeX_ h ",
"m <X: m       # &.H ! ! ! E . o 2 < < < 2 2 2 2 < m   % ! ! .                 , 0.2.N.>.$Xm f.SXM.0X$XT.iX+X%.^.5.FX%.vX^.$..Xq ",
"b.(.!.-       =.[ Q ! ! ! 5   < < < < < % < < < }.+XT # ! !                       | 0XM.Q. XE.T.|.j._.{.sX!.<.bX%.c ;Xv.u.C.@.I.",
"/.q ( M.      : FX! ! ! ! $   < < < < < 1 4 % *X9.dXe NXE L     e 3.                  E./._ B D.xXu.ZX' -.;.h.>Xc d.` ~.c r.` a.",
"a X ,.        t '.! ! ! L     < < < < 4 % 5 x B.N Q.S.9 % !     CX%.: -.                > i.T.k.> cX#XjXrXAXx u - i.SXG.r.k.M.A.",
"( r x       D 8.s.! ! ! 1       . O     T.- fX4.B.&.2Xe 7.K     D i.#Xy bXD.@X              gXq I.B m z.}.s.f (.FX*XfX@X> d.NXrX",
"j.} %.A   7.a d.&.! ! I     +         -.( a f s.C.d.9 ` _.<     = d m S.p.cXp.5.F.,           %.A.a.M.&.d.qXd.c.z.-.b N.I.<Xu PX",
"] m M.>   { s.a.s.! E $     s         n D.V +.+Xj { r q vX        FX5.ZXv %X|.uX&.v.d 9.      x.kX;XHX{.zXI.e.u.AXM s.d.| T.;X[.",
"z  .c     ] i.k.gXJ H     p Q.      P.] .XxX*X[.cXM >./ $.$.      DX9 f.}.{ @.%X`.!.sX: @.+   F *XR.oXwX!.V.C r.} cX9.{.PX&.:XF.",
"; >.{.    7.p V   $     c M.`       m &X9.0.| a &Xt [ L.6.FX      E./.DXy.&.j.5.O.[.H.J.A 8.  R p t.t.h X.rXc I.F.xXV.@XG.g.b pX",
"+Xp O.  7.B.          E.i.a.      X ; w i.P.+ {.i w Z.+.2X+.      F.).| =.9 ( Y.x 2X-.s.L.      I.N.&...fXP.wXc a. .f iX>Xe.z.rX",
"T.Q./.  c b         q !.k 9         V SX:. .M.#.u V.$.+ ).3.A     1Xh.F.x ;.F.<XFXvXN.z.-.      h A w.s._.w.*.B r.AX0.- fX,X&.t.",
"!.z e , h b.X.      -.uXN dXd.      f.* z M m BX].-.X.SXZ.s [.    u *.>XCXBX,.e V v C yXB       m $XZ F yXj.`.U.vX#.-.k.e.N.g F.",
"O.=.* Y e _.p       { 6.v CXg.      lXsXg.L.* .Xf.X f.q <X[ X.      qXP.8.5.I.hXP.O.q -.T       !.<.T.( r q ~.F.u ` e.sX;.qXa.|.",
"* q ^.1./.N l       q +X` q _.r     @ g.yXp.6.S b 0 o.i ; x 3.#     - ' ,.+.A.V l ,.x CXJ.      <.C s.>Xs.L.y.&XvXC '.|.c I.w ;X",
"k p._ ; <.q 9       x Y b c.%.*./.    `.eX<XfX> ` j CXZ.X ] b 7.    * * 1.K.N.D.} y.#XB.%X    * +._.VX] ( 0.I.kX..] l.;XkXh.@Xs.",
"#XE.>.( >.a.s.,     cX/.: b./.2._.    {.9.m ` =.a.B | j.dXf.9 d       B.i #X/ g.,.- F [ @.  d fX*.+Xx.h | c.@.R.R.X.$Xb x.t j J.",
"( (.i =.[ P.3.rX    b h._.@X(.v uX_.    6.    ZXf.0 #XL.uX>.V =.r       I.    : y.f.uX+ m e.j.I.PXB 2.R.wX0 ,X_ p M.x.5Xz.Y , h ",
"d OXOX>.B q ( >.    c     e &.=.c `           3.8XY.D l.l /.- { bXCX            [ r [ bX* sX;X9 ~.u.kXrX-.z.qXc o.t.M.(.bXaXu.t.",
"y.&X2.M.R.9 ` x           +.P.x 9.i.F.        C.Q.V.#X!.T.e s V m g #           s.q._ =.s fXr vX;XQ.b.g V.wXt.e.<X[ G.z.C a.@.a.",
"h + <.| A o.t i.O         - j 3.[ ` i.        - 9 b #Xs.iXeXV.A c.5.{           [.Y ` y.1. Xk.<.>XrXM r.@.XXl.a.M s.T.0 1X|.:Xo.",
"( l ` } ( ; ' [ y *   + , jXI.( #.c.p - +.E.f O.#X!.j r.) Y.0XaX0XT.n.{.      @ s.<.X.| I.HXc.%XY.Y 5.-.v ^.c -...o.I.F.r D.U.1.",
"i e d ` d `.;.q 1.i _.{.g.9 >.0X=.t.[ a.f ].y._ V =.t ` yXi.p.m g.z.d &.f A.v.c.rX9 -.v.wX5.0X1.+X,XcXU <.I.J.g.R.u.9Xe.h.X.v u.",
"m q -.a p y.r 0.s.L.; I.;.i.D.#.n CXV.z B.!.f.| v g.f.V ,.C.{ fXr ~.c /.I.x MXS u N #Xs.+X-.c wX] @.fXh.s.0 %.iX) F.-XvX^.-.(.R.",
"] { ;.M a j H.}.( q 0.9 9 +.;._.NXE.n y.@.V / ..b #.f q 9 b.D.> ].e h N.s.<Xf.c.d.T.' %X<./.@Xu q q @.cX,XHXy.<.c | s.C 5Xx ] T.",
"f - q i y.;.j *.w ; a { =.g.2.q >.l ;.P.1.V.V.[ }  X5.qXsX<.eX;X(.eXqXfXb } _ L.u.r N.] t.i.=X+.z.+.X.A / #XJ.a.i.h M I.zXk.I.z ",
"O.) N.0.a.z x w.v S 9.M f r.B.%.#.F.: iXxX>.D [ V.: L.O.;.O.C y I.[ e V.-.` t.1.u 1.xXx.5X&.$.+.eXfXaXt r.@.vXt.I.-.<.s j.w eX5.",
"M.R.b 8.!.- 3.a { q } aX).F q h i g >.iXS ].g.=.H.T.* AX` *.h.M C GXZX+XeXe a.@.R.|.iXkXX.Y.(.s._.aXV.9Xa.O.u.rXu c r.] ..a./ e ",
"a.- y.* 0 0XP.s p.z |.q e h.a O.q / d g <.P.&.<.z -.&.9 ^.<.j.1.+.i q -._.fX>Xh z.!.wXvXp.y._ S M.CXN u.r.u 2.].+...X.fX,XcXsX@."
};
