/* XPM */
static char *_834b11846aa4c6ddba9a95de6dab25cjwx5H4bPfq9wf4Yp[] = {
/* columns rows colors chars-per-pixel */
"64 64 255 2 ",
"   c #110E0B",
".  c #091007",
"X  c #031802",
"o  c #1B1814",
"O  c #221D19",
"+  c #042704",
"@  c #023402",
"#  c #033A03",
"$  c #0A3A06",
"%  c #17320D",
"&  c #25251B",
"*  c #29231F",
"=  c #2A3819",
"-  c #2C2621",
";  c #332C26",
":  c #362E29",
">  c #353228",
",  c #3B342D",
"<  c #3F3730",
"1  c #453C34",
"2  c #493F36",
"3  c #084706",
"4  c #16480A",
"5  c #025302",
"6  c #025B02",
"7  c #0A5808",
"8  c #155A08",
"9  c #194A13",
"0  c #1B5815",
"q  c #274C16",
"w  c #245714",
"e  c #036401",
"r  c #046C02",
"t  c #0B6C03",
"y  c #0B6409",
"u  c #0D6B0A",
"i  c #156709",
"p  c #027301",
"a  c #0C7403",
"s  c #067A07",
"d  c #0D7D02",
"f  c #0D730A",
"g  c #177709",
"h  c #137B0C",
"j  c #196613",
"k  c #0C7111",
"l  c #1B7614",
"z  c #23790B",
"x  c #266717",
"c  c #336C12",
"v  c #277917",
"b  c #337A18",
"n  c #364827",
"m  c #385728",
"M  c #2E6C24",
"N  c #357824",
"B  c #41531C",
"V  c #42731F",
"C  c #4A4137",
"Z  c #484934",
"A  c #4E4339",
"S  c #51463B",
"D  c #54493D",
"F  c #594D3F",
"G  c #485935",
"H  c #49722E",
"J  c #564D43",
"K  c #5A4E41",
"L  c #5C5145",
"P  c #605649",
"I  c #645A4C",
"U  c #685E51",
"Y  c #536C40",
"T  c #6E6457",
"R  c #6F6558",
"E  c #746A5C",
"W  c #756A5C",
"Q  c #667550",
"!  c #7A6F61",
"~  c #7F7465",
"^  c #867E5C",
"/  c #817666",
"(  c #857A6A",
")  c #887C6C",
"_  c #0A8604",
"`  c #138303",
"'  c #148B03",
"]  c #14830B",
"[  c #1B830C",
"{  c #198A09",
"}  c #1A9606",
"|  c #10910B",
" . c #1C8813",
".. c #24840C",
"X. c #238D0C",
"o. c #288909",
"O. c #328B0B",
"+. c #259705",
"@. c #24940C",
"#. c #2B930C",
"$. c #2C9B0C",
"%. c #35990B",
"&. c #288517",
"*. c #248C12",
"=. c #2A8B13",
"-. c #348A19",
";. c #2B9312",
":. c #289714",
">. c #389617",
",. c #349C12",
"<. c #14A004",
"1. c #27A406",
"2. c #2DA30C",
"3. c #3AAA07",
"4. c #35A40C",
"5. c #3BA40D",
"6. c #3AB20A",
"7. c #2EAA17",
"8. c #3DA414",
"9. c #3AA718",
"0. c #2F8C28",
"q. c #388829",
"w. c #3A9925",
"e. c #3BA526",
"r. c #3DA430",
"t. c #448D18",
"y. c #4B9C11",
"u. c #449A19",
"i. c #46A90A",
"p. c #54AE0C",
"a. c #48B507",
"s. c #4BB30D",
"d. c #56B809",
"f. c #47A817",
"g. c #53AB16",
"h. c #4BB417",
"j. c #54B413",
"k. c #57B817",
"l. c #5BBC1B",
"z. c #64BC0A",
"x. c #69AF12",
"c. c #65BB18",
"v. c #528D2C",
"b. c #469827",
"n. c #468B36",
"m. c #499635",
"M. c #569938",
"N. c #619533",
"B. c #49A926",
"V. c #55AA29",
"C. c #49B325",
"Z. c #59B926",
"A. c #4BA734",
"S. c #57A936",
"D. c #4DB336",
"F. c #5AB438",
"G. c #65A92E",
"H. c #65B829",
"J. c #65BB39",
"K. c #76BA38",
"L. c #48C00C",
"P. c #5BC309",
"I. c #5AC214",
"U. c #67C609",
"Y. c #71D00E",
"T. c #7AD609",
"R. c #66C516",
"E. c #74CB19",
"W. c #78D318",
"Q. c #7EE10F",
"!. c #5BC228",
"~. c #69C626",
"^. c #79CA29",
"/. c #78D229",
"(. c #6BC638",
"). c #76C939",
"_. c #6DD73D",
"`. c #7AD337",
"'. c #579D47",
"]. c #6B9453",
"[. c #59A745",
"{. c #5AB347",
"}. c #64AA4B",
"|. c #66B945",
" X c #75BC46",
".X c #68AE55",
"XX c #75BA57",
"oX c #77B764",
"OX c #5DC04B",
"+X c #6BC546",
"@X c #76C746",
"#X c #78D446",
"$X c #6CC853",
"%X c #78C957",
"&X c #79D257",
"*X c #78C765",
"=X c #7ED068",
"-X c #81B631",
";X c #85D515",
":X c #94E513",
">X c #83D62B",
",X c #8DCF31",
"<X c #86D638",
"1X c #92DC3B",
"2X c #91E533",
"3X c #95A55E",
"4X c #8B836F",
"5X c #8E8271",
"6X c #928674",
"7X c #968876",
"8X c #9B8D7A",
"9X c #85CD47",
"0X c #86D648",
"qX c #93DA4A",
"wX c #86CD58",
"eX c #89D857",
"rX c #94DA59",
"tX c #94E14A",
"yX c #8CE354",
"uX c #96E359",
"iX c #A6EB49",
"pX c #A2E859",
"aX c #85CB66",
"sX c #87D768",
"dX c #95D966",
"fX c #8DC972",
"gX c #8CD974",
"hX c #97DC77",
"jX c #A4DB75",
"kX c #8EE264",
"lX c #98E368",
"zX c #99E577",
"xX c #A4E667",
"cX c #A5E979",
"vX c #B2F371",
"bX c #A79B87",
"nX c #94BF80",
"mX c #AFA390",
"MX c #B0A491",
"NX c #96DA80",
"BX c #A6D98A",
"VX c #9EE386",
"CX c #A6E985",
"ZX c #B5ED8B",
"AX c #B0F08B",
"SX c #B3E994",
"DX c #B7F396",
"FX c #B7F0A4",
"GX c #D8CD94",
"HX c #C3F491",
"JX c #C6EFAE",
"KX c #C7F6A7",
"LX c #F3E8A5",
"PX c #F1E8B0",
"IX c #EAE6CC",
/* pixels */
"5.rXj F.d.t r (.C.VX~.t.m.s.5.zXJ.] +Xi i.@Xk.~.8 f +X' R.:.k gX{.a sX$XSXeX<X$.V.f.X.g F.h...^.iXE.%XrXH.@XVXfX| l >.B.x.=.i 8 ",
";.;.:.z %.4.sXx ' _ .Xi ^.>.J.(.O.<XhXK.Z.`.j >.e.+XR.0X@XX.s 9.d.~.).rX^.rXV.^.H.^.(.SX@X|.0X Xl sXv b.cX*XY.|.d T.s i f.#.tXlX",
"+.7 /.C.C.a 9.4.y O.M >.$.m.i ` b.#X5.f.pX9.[ { @.:.e.cXZ.d.y 5.#.tXC.ZXz eXS.9XrXqXH.9Xt.&.U.2XXX>Xf.wXwXeXfX..# j.&Xi.z.9XA.H.",
"wX3.@.3.h F.*.4 J.5 J.h.$.9X@ i &.yX@.9.,.f.zXf.z 8.Z.P./.@X<XC.sX|.eX;X1XC.b w sXj.<XqXH.XXZ. X2Xq.X.Y.,.v g.9X4 wXK.' ` X.'.V.",
"f.f.' 0 +.` A.d :.;.s.] l./.,.$.i x.3 sXhX~.K.i.^.B.u } +XA.l $.&.@Xf.h O.S.wX+.).J.1XyXgXiXB.T.U.;X;.0X#.eXV.^.;.c.%XF.%.K./.h ",
"8 ` d ` V.&Xf.a.(.t F.g a 5 # g o.K.s.$.5 R.a.SXk...R.aX(.sXR.%.h hXVXE.M.f.x.JXM.#Xi.P.&X3.j.VXaX/.9.V.^.U.j.j.gXc.0Xg.9Xc.#Xg.",
"s H.$Xg { @.5 p 4 C.7 +.0 { #X~.} g _ d O.a Z.>.0.O.vXkX4.zX(.{ A.R.j.5.hX(.%X^.(.#XdXi.A.;XR.i.@.SX3 e...s.6 S.fX/.:XlXc.V.>.).",
"&.!.j.k.r k.i t.+.6 7.w ~.&.xXZ.+Xe Z.i $.k.%.cX~.K.#XE.!.#XsXP.q.B.$X@ A.;.(.K.).h JXk.CXO.C.I.wXi.D.l.dX-.).d.hXV.t.tX,X1X).dX",
"i.(.p.@...f.} U.,.z.9.[ *XS.&.C.U.gXeXj.A.H.b.: : H |.: = |.c %.T.[.{.#Xw.U.l ] f.%XdXU.e [.i.&./.w.(.b.0X+.3.'.c. XhXd.{ i p.g ",
"# i %.$ l A.r.y G.z 7 y j (.f.0.&.Y.3.$X..i.g ~.* , - : 1 ; 1 w < fX..E.A.k.+ u.q.cXa.f T.} @.kXk.eXDXW.Z.@.A.d.HXqXb.% eXX.c.&.",
"V.u H.,...&XXX,.k.J.7 l.yX6 +.5 gXJ.,X+X& * * : - 9 * * * & Q 1 1 ; .X[ 0X*.`.v #XCX(.qXI.*XzX0.+.CXY.h.F._ *.Z.XXi.=.z.R.eXc.c ",
"9.u &.0.$.6 $.F.p Z.#.:.h x H.h.).I.U.N 7 uXC.t.- - O * & o * ; ; 1 n - X.[ =.j.0X~.OXd.S.+.tXV.} 3 w.,.f.cX8 :.x d xX%Xg.B.s.-.",
"8 +.i.c.aXd gXf._ l h 8 } 1.u 7 3.0.i.3 Z.n.B ; & o O - * * o * * FX% Z +X| (.g f.$X| *X>.u i.$XeXi.fXdXs #.#Xf @XHXu eX{ ;Xi.xX",
"8.+ v A.f.4 &XZ. .9X..l.6 4 6.@.5 b.J.h.).H ,.h.O U R J R * * o * * - - < j _ oXh.SXkXBXB.d.|.} 1.$.&X'.U.d.CXlX4.p.R.%.2.;XP.d.",
"@ 3.zXi.D.a &X+XB.+X} f p V.` 3 s l FX6.>.| =   - T 1 2 2 ( / 1 o * * * - v.o 9 u.} *.=.} X o.cX0Xk.g (.v 2.-.^.l.X.hXU.s.g.f.h.",
"#.'. ./.l.3 J.d.w.'.z k l y g.h.M s.X u } E.G o T ) J A 2 8X) K W , * * * n : XX> < Y & z ].cXa P.@.~.i.`.$XR.u F.%.'.9Xi.j.G.e ",
"@.i.h V.[ 3.' 3 t t.(.v D.# ).d.l -.$ qXy :.t.* 1 8X2 2 bX) 8XF A W T *   : 1 * O ; : O : & H N.|.4.:XAXcXfXFXe.V.w.%.jXg.V.d j ",
"A.F.+ ~.&XsX6.}.b c.N .  .@Xd.~.d R.} 2.6.(.* Z K 8XbX) bX) 8XI F 7X/ W T bX8X- o 2 : q d ` d.1  .oXH.`.DXM.[ { a d p.}.|.#.V. X",
"k.} d ;.;.{ ' @.lX3 | 8 i.m.{ h.f.j.d.d.} dXf.6XK 8X8X8X8X) ) 8X7X8XK A / mX5XU * * & (.& 2 1 N b.K ,.P.c.%.M.*.U.lXwX@Xl Y.(.f ",
"7 {.3 9.6 6 _ + @XU.zXw.uXB.XXC.d.` Z._ 6.K.W 8XK 8X8X8X8X8X/ 8X8X8XK K ) MX/ D * * o * 1 * h u.9XL mX7.} =XD...&X .;X&XM.z.5.).",
"l r _ 8 _ 3 l.z h P.i.+ :.A.d.g =XFXx = R ~ 8X8X8X8X8X8X8X8XW / 8X8XF F W 8XW 2 2 * O *   f.v.% 9XS mXg zX8.a #.+X=.{ R.@Xo.ZXrX",
"s b.x :.s %.1.a x  .Z.uXj.v A.v.6 a.R ~ 6X8X8X8X8X8X8X8X8X8X( 2 8X8XF 8X/ 8XW / F T 1 * - J O 8 n J 4XBX^.E.cXF.w.h.j.j.&.p.fX0X",
"s +.9.;.1. .XX} 8.h r.#Xi e.7.:.oXT ( 8X8X8X8X8X8X8X8X8X8X8X8XT ) 8X8X8X8XW / F A F 7X) K * 6XV C W Q Z.B.f._ FXl.w.qXG.y.J.>.X.",
"w.j 3 p a =.>.6.3 _ 9.2.u M +XJ W ) 8X8X8X8X8X8X8X8X8X8X8X8X8XR R 8X8X8X8X8XW P 2 W 8X8X8XW D 8X1 ~ 8XeXZXF.rX>XV.xXZX4 +X6.lXi.",
"7 Z.p k t =.>.N 4.9._ y q.r.R 2 8X8X8X8X8X8X8X8X8X8X8X8X8X8X8XW S 8X8X8X8X8XS U T 7X1 ~ 7X8X* 8X1 W 8X).cXJX%.O.BX_ E.ZXdXfXU.M.",
":.@X7 3 _ r 7.f.I.} # hXe T A L 8X8X8X8X8X8X8X8X8X8X8X8X8X8X8X) T / 8X8X8X8X/ R ! 8X1 LX8X8X8X8X/ U MXkX~.H.z 0Xf.KXE.J.dXU.+. X",
"# { (.h I.6.sX5 p +X>. .T ( K 7X8X8X8X8X8X8X8X8X8X/ ) bX8X8X8X8XT T 8X8X8XbX/ T 5X8XLXL 1 8X8X8X/ S MX+.+Xj -.|.Z.S.KXO.Y.y.g i ",
"5 oX5.,.e +Xv F.*.h.W.I D 8X8X8X8X8X8X8X8X8X8X8X8X/ K ) 8X8X8X) T S / 8X8X8XK W 8X8XC LXGX/ 7XI K / 3.q.XXaX~.>.}.g %.-.i.z.9 ;X",
"f.|.{.F.X 7 s i.s.f.$ C D 8X8X8X8X8X8X8X8X8X8X8X8X/ T / 8X8X8X( T 2 T 8X8X8X/ W 8X) 8XL 8X1 o * mXR 0 b ;.~.X.d.a..X3.F.).o.u.,X",
"i.Z.} _ 8 h._ J.I.& P A D 8X8X8X) 8X8X8X8X8X8X8XbX) / T 8X8X8X( T ( ~ ( 8X7XT T 8XD 8X8X1 , A A , R %.r c.uXd.g Z.`.5.j # Z.uX{.",
"w.+Xy 0 + w.s < - * T J 8X8X8X5XR 8X8X8X8XbXmXMXmX) / T 8X8X8XW T / / ~ ) / ~ T 8X^ LXIX  2   1 1 T v o.i }.!.f.V.u.7 a s [ ` ;X",
"d aX3 h.i.r h.- - - ~ 8X8X8X8XR R 8X8X8XMXMXmXMXMX/ / T 8X8X8XT T ~ ) / 6X) / J ! LXIXGXLXD 1 ; 6XH.x a.} v 6 j.J.a gX(.~.hX,XeX",
"5.S.5 3.V.x < - * - 8XK R 8X7XR R 5XMXMXMXMXMXMX8X~ ~ T 8X8X8XT L / L 9XR.:.=.5XR   LXLXLXMXLXPXw i.&.vX%.g  X4.^.7 R.R.H.:X%.N ",
"_ >.eX+ b 0 < - O U K K D 8X) R R 8XmXMXMXMXMXMX) ~ ~ W 8X8X) T / / 1 H h yX6 r.7 L   bXLXMXLX6X5.~.j.8 } <Xt s.l.aX6 v h.0XcXjX",
"k f h _ |., < o o T L K ) 8X! L ( ( 8XMXMXMXmX5X/ / C 5X7X8X/ T ~ ~ T T T ] ' k./.| E.-       g u -.h.| *Xd.u...j p.=.w.m.V.' ..",
"N.X.l s.- 1 - -   ~ ) K 8X8X! 1 ~ ~ ~ 7X7X7X) / ( ~ L 5X7X8XW T S U T T T S R.a.k.lX7.D.} H h.z 0.e F.zXdX).%Xu n.&.u. XAXeX' i ",
"h >X$ l 1 - * % b 5X8X8X8X7XE J ~ ~ ~ ~ ~ ~ ( ( ~ l J ! 8X8XR I T R T T L K S = w.3.V.1.$Xl h.AXC.<X$XR.uX+X&.W.5.SX*.cX/.*.%X5 ",
"M.).J.@ 1 - * ;.@.8X8X8X8X( R / ~ ~ ~ ~ ~ ~ ~ ~ |.+X}.].8X8XR R J T T T K K C 1 1 ..9XB.!.{.;X~. Xl.`.}.aX~.3.vX;.l ;Xn.i.l.%.z.",
"~.3 _ 6.: * * 3 DX8X8X8X8X/ T ~ ~ ~ ~ ~ ( ~ ~ *Xr.=X8 BX5X8XR R 7 3.T T J 1 1 D 1 1 < Y.+X' M Z.zXs.CX..>.9.j.>Xg g.h ,Xg u.] d.",
"p X 1.> : o o 9 '.8X8X8X6XR T / / ~ ~ / ~ W s B.x Z.D.7 ! 8XR I CX-.$ -.m 1 D C 2 1 1 1 H a.R.z.% xX#XhXrXZXf w @ i.vX|.u.d.V.S.",
"_ 8 f ; * q q q.h.8X8X8X/ R R L L L S Y R.# dX6.e.>.2X7 0.6XI K M a.#Xi vXS.+X1 C 1 1 1 C K fX5 c.c h c.|.f.t ).DX*XdX@X% p.BXpX",
"l. .X.n * &.r f.O.8X8X6XE T m I R R T w.s e r B.l.g.3 ] `.~ L C w 7 l S.j.pXs.8.Z.B C 1 1 1 P O.V.z.B.&.p.tXg.b.c.>.j V.U.<Xq JX",
"{ l B.H o _ f.j.f.8X6XW T R y F R T T k F.v @.+Xp | 8 5 CXU K A , DX,.SXk %X|.uXO.n.7 w.1 , 1 x.jX^.HX.XzXz.y.i.DXv f.C...U.;XF.",
"` *.f O o { a.U.fX5X5XR T e !.T T T I.] XXhX*X{.xXz 2._ *. .K 1 1 SX3 h.+X} %.%X[.(.aX$ #.X 1 ' wXW.oX9X~.Z.b u.[ pX>.}.KXX.2XH.",
"# 1.}.* o 0.t l T T T R g b._ D F F v $X9.w.o.r &X3 :.P.9.DXJ A A W.(.SX6.&.l.5. .{.J.K.m 0.1 ].e y.a.i O.rXg U.(.zXZ.@XG.x.j iX",
"+Xe +.* &.C.U F F F U W.L.d.1 C Z m # e s.I.X .Xr 7 B.;.2X#.P 2 1 Z.#Xz :.3 _ Q.a 2X>.y.d.1 1 T U.V.&.o.sXc.wXz d.X.y uX>Xy.H.rX",
"R.!.(.o h j 1 1 1 1 7 I.a 3 , A 1 1 v DX} =.B.*.q C.;.X _.6.v.C 2 1Xl.~.k 9.H.`.HXcXS.l.%.2 1 P i m t.V.`.t.=.b >.ZXe.# dX-X-.i.",
"~.h 7 O i b.u.1 2 2 -.yXx dXg.C 1 1 s.+ s z l BX}.>.O.AXA.r .X2 1 c -.>XCXBX2.3 v g &.iXc 2 1 P l +Xm N 1Xl.'.T.jX&.-.U.g.g.i H.",
"} ,.+ H 8 _.e S A = | 8.h CXk.= S 1 dXaXh.P.+ $Xs.. h.7 <X} O.P C 1 qXI.0.8.U.gXI.@.5 >.b 1 1 J ~.5.U._ 8 6 ^.H.q ] i.=X-.qXd. X",
"+ 5 /.2.(.w _ S D o 6 |.] 3 `.8 1 2 = h.qXs.9.N 0 3 @.e # u 6.H A C @ [ 4.#.S.v s 2.k CX).1 C U 3.&.B.>Xf.P.i.&XcXb ]. Xz U.6 W.",
"g h.' # 3.6 $ S 1 2 f n.j b.=.;.(.K 1 M.eX0XdX% h s VXA.X ] x 0.A 1 w + 4.a.V.F. .i.@Xh.wX1 1 + %.).VX` _ e.U.jX..{ z.;XxXj.@Xf.",
"#XW.<._ 1.d.f.K.1 1 pXJ.# M.(.4.`.1 K |.w.g ` ;.d.c X.d.kXf.3 y K D 1 C.e #X_ j.2.@ q.} %.> 8 dX;.@Xb.i ..b.5.E.E.O.+Xx v.q p K.",
"_ ).6 $.} I.6.rX1 1 j l.`.@X).k eX`.1 1 :.< , CXh.4 0Xd.uX1.l :.y S 1 O U.1 1 $ a.h.eXX [ y.l.U.KXc 5.E.aX4 ,X` t f.V.3XH.v.% 8 ",
"y OXOX1.c 7 _ 1.1 S z , , 7 0.2.[ _ 1 S 2 2 : 6.nXT.M c.s (.$ | vXCX2 2 1 C 1 > } 0 } vX+ fX;X3 ^.p.dXdX>.z.qXg @.i.u.@XpXxXx.p.",
"i.&X5.B.R.3 ] t A A 1 1 ; #.I.g w.a.k.1 C 2 2 Z.C.Z.#XY.R.y t v l i n 2 A A 1 1 f.A.' :.f dX8 xX;X~.m.i V.rXy.y.<X} G.c.b d.+.d.",
"i X 3.X.m #.0 a.> D 1 1 1 @ p 3.} h a., , 1 , @ $ x #Xu.uXeXV.m b.8.] D 1 D S > }.N ] i.4..Xd.3./.rXz u.,.].x.d.z B.z.9 1X X:X+.",
"_ f ] ] _ $ { } j w Z % 4 gXU._ &.b.y + #.W.y @.&X!.p f.' ;X0XpX0XR.M.v.- D S = f.3.O...z.HXb.%X;XH f.>.h ^.g >.o.+.U.H.8 F.Y.4.",
"e 7 f ] 7 [.,.3 %.e `.}.g.4 1.yX@.s.} L.f [.s.} z :.9 ] tXa.s.l k.l.y =.u S.n.b.rX3 >.v.&X9.eX,.+X,XuXG 3.U.).p.E.p.9Xy.k.O.k p.",
"i 7 >.r y 9.8 e.f.P.# U.,.a.S.&.j cXZ.d C.~.s.g h k.h.z 2.!.| dX8 ~.z (.U.f NXv w x @Xf.@X>.l 9X} #.dXl.f.4 =.uX` H.-XcX>X>.).E.",
"{ | %.z p s J.|._ 6 e.3 3 ;.$.`.BXW.k i.%.&.s O.x &.y 5 3 m.F.% [.7 j V.f.<Xh.b.g.R.[ &X5.~.@Xw 5 5 O.xX,XHXi.3.[ ..f.b  Xf ] Y.",
"t @ 5 e i.%.p =.e # r | ,.j.5.3 +._ ,.I.9.Z.h.+. .}.8.qXfX3.eXT.).eXqXsXx  .{ d.p.y V.' i.a.=X$.c.#.b M ` #XK.d.a.i o.z.hXd.U.d ",
":._ V.9.d._ s t.g M w.v u >.C.:.*.H.$ kXzX@.N { Z.$ d.+.$.+.b 0 U.X.7 Z.%.h i.4.q 4.jXv.3X&.@.O.eXlXpX4 u.%.cXi.z.>.3.t z.7 eXf.",
"B.E.j q.~.@ 6.r | 5  .pX(.b 5 u 6 i 1.rXM [.j.;.F.l.+ ZX| -.h.z b DXAX$XeX8 d.5.E. XpXjX+.T.@Xf.).pXZ.9Xj.+.i.uXq d u.[ z d._ 7 ",
"d.@ i.+ 4 0Xl.t s.d +X5 8 l.e :.5 _ u i 3.I.>.5._ 9.-.4 /.3.c.%.$.r 5 %.@XrX`.i c.~.wXcXi.a.' N u.AXx p.u.w i.[.O.o.O.dX2XxXaX%."
};
