/* XPM */
static char *_b705c9deae54c15818a1fdba7ca85a93a7felMvKPjMV3If[] = {
/* columns rows colors chars-per-pixel */
"64 64 256 2 ",
"   c #000F00",
".  c #031903",
"X  c #361410",
"o  c #062704",
"O  c #022C02",
"+  c #073805",
"@  c #14340E",
"#  c #332B2B",
"$  c #4C190C",
"%  c #5C2614",
"&  c #4E312B",
"*  c #084705",
"=  c #144808",
"-  c #045303",
";  c #035B03",
":  c #0A5C03",
">  c #095608",
",  c #145909",
"<  c #0E5312",
"1  c #195714",
"2  c #335512",
"3  c #036303",
"4  c #086806",
"5  c #0C6C0C",
"6  c #16680A",
"7  c #037302",
"8  c #0B7303",
"9  c #097907",
"0  c #167808",
"q  c #196913",
"w  c #197813",
"e  c #25770B",
"r  c #256918",
"t  c #277718",
"y  c #307111",
"u  c #305628",
"i  c #356928",
"p  c #2D7227",
"a  c #397826",
"s  c #4E6F12",
"d  c #466827",
"f  c #546420",
"g  c #507730",
"h  c #555B47",
"j  c #6C5454",
"k  c #785854",
"l  c #6B7546",
"z  c #72696B",
"x  c #932C0C",
"c  c #B53B06",
"v  c #BC4508",
"b  c #B04C11",
"n  c #88522D",
"m  c #9C5D29",
"M  c #C64A06",
"N  c #CB5409",
"B  c #CB540F",
"V  c #D65806",
"C  c #D4690F",
"Z  c #D86110",
"A  c #E76705",
"S  c #EB740D",
"D  c #F77803",
"F  c #956F4F",
"G  c #966A59",
"H  c #996F5A",
"J  c #8D736F",
"K  c #098605",
"L  c #168805",
"P  c #14840C",
"I  c #1C830C",
"U  c #1B8C0B",
"Y  c #099205",
"T  c #199507",
"R  c #198612",
"E  c #1D9712",
"W  c #26880A",
"Q  c #348B0B",
"!  c #24940B",
"~  c #279908",
"^  c #369A0B",
"/  c #288815",
"(  c #368A17",
")  c #2A9615",
"_  c #389917",
"`  c #1AA106",
"'  c #2AA407",
"]  c #33A30C",
"[  c #39A708",
"{  c #39B208",
"}  c #2EA812",
"|  c #39A616",
" . c #388825",
".. c #328B2A",
"X. c #399826",
"o. c #3BA626",
"O. c #3EA032",
"+. c #4A9510",
"@. c #459919",
"#. c #678E1E",
"$. c #45AA0A",
"%. c #55AC0D",
"&. c #4AB303",
"*. c #47B709",
"=. c #4BB40C",
"-. c #55B908",
";. c #47A918",
":. c #56AC17",
">. c #4CB213",
",. c #49B417",
"<. c #56B817",
"1. c #63BB0B",
"2. c #63BA18",
"3. c #71B811",
"4. c #499927",
"5. c #4E8E32",
"6. c #499834",
"7. c #6D8E2C",
"8. c #48A826",
"9. c #56A929",
"0. c #4CB426",
"q. c #57B827",
"w. c #53B42B",
"e. c #4AA935",
"r. c #56A937",
"t. c #4EB435",
"y. c #57B737",
"u. c #65BA29",
"i. c #6DAF31",
"p. c #66BB37",
"a. c #5AC307",
"s. c #4FC211",
"d. c #5BC316",
"f. c #66C70A",
"g. c #70CF0D",
"h. c #76D507",
"j. c #64C312",
"k. c #68C819",
"l. c #74CA16",
"z. c #78D417",
"x. c #5BC32F",
"c. c #68C628",
"v. c #74CA29",
"b. c #6ED12B",
"n. c #7AD429",
"m. c #69C537",
"M. c #75C938",
"N. c #7AD538",
"B. c #549147",
"V. c #6F8C4E",
"C. c #59AB45",
"Z. c #5AB644",
"A. c #5DAF55",
"S. c #67B949",
"D. c #74B947",
"F. c #6CB151",
"G. c #7C9268",
"H. c #74B569",
"J. c #5BC148",
"K. c #6AC546",
"L. c #76CA47",
"P. c #79D347",
"I. c #6BC553",
"U. c #78CB57",
"Y. c #6ED351",
"T. c #7CD456",
"R. c #7BC867",
"E. c #899F38",
"W. c #F38B10",
"Q. c #FEAA15",
"!. c #E89B22",
"~. c #86D811",
"^. c #85D729",
"/. c #8FD637",
"(. c #85D938",
"). c #91E522",
"_. c #92E62F",
"`. c #FED427",
"'. c #8FAD4D",
"]. c #A68674",
"[. c #AE8A74",
"{. c #98A361",
"}. c #90AF6B",
"|. c #8FD54F",
" X c #87D849",
".X c #83CB54",
"XX c #88D859",
"oX c #8FE546",
"OX c #97E54A",
"+X c #98E659",
"@X c #A4EC42",
"#X c #A4E858",
"$X c #85CA68",
"%X c #91CA6C",
"&X c #89D865",
"*X c #93DA68",
"=X c #8ADA74",
"-X c #98DA77",
";X c #A6D873",
":X c #8FE569",
">X c #98E667",
",X c #9AE575",
"<X c #A6E869",
"1X c #A6E977",
"2X c #AFF272",
"3X c #CBE875",
"4X c #7D7B81",
"5X c #867C82",
"6X c #71A6A4",
"7X c #7ECCBD",
"8X c #93898B",
"9X c #B89B88",
"0X c #AA9790",
"qX c #B69C95",
"wX c #BCA28B",
"eX c #ABA59C",
"rX c #A0AC99",
"tX c #B8A79B",
"yX c #B5AFA6",
"uX c #BAB6B5",
"iX c #C59D8B",
"pX c #C6AA96",
"aX c #C8B39B",
"sX c #C8B8A7",
"dX c #CEB5AD",
"fX c #C8B9B7",
"gX c #98D98A",
"hX c #A5DA8C",
"jX c #99E589",
"kX c #A8EB88",
"lX c #B7F586",
"zX c #ACEC93",
"xX c #B7F399",
"cX c #9CD5B4",
"vX c #B7F1A8",
"bX c #C6F495",
"nX c #CAC3BE",
"mX c #E1C3B9",
"MX c #CBF8AC",
"NX c #B4B7C5",
"BX c #C8BFC5",
"VX c #8ED1C7",
"CX c #AED9D7",
"ZX c #C8C5C7",
"AX c #D6C7C8",
"SX c #DAD3D4",
"DX c #E6D8D6",
"FX c #DEDEE4",
"GX c #E1DDE5",
"HX c #E9E4E9",
"JX c #F4EAE9",
"KX c #ECEBF2",
"LX c #F2EEF3",
"PX c #EBF7FE",
"IX c #F6F2F5",
"UX c #FEFEFF",
/* pixels */
":X8.=XP.E 9.| t T ( =X*X&.0 K.6 $.Q 9.&.~ ' ) 4 m.=XY n.) } 3 Z.m.N.^.k.S.U.1XQ ^.@.O.S.w.~ 6 K t.q.5.$.K.@Xe -.) p.M.t.P c.=X(.",
"e.L ; a | e 9.|...L.c._ y.T.-X9.! g.c.0 L t ,.L.T X.0.y.l.P K T v.>.! kX XlXh.<Xi.l.hX4. X@.XXbXw.8.9.L..X( ) h.,XD.kX) $.y r.w ",
"$.4 >.a MXy 8 ! hXW U M.T w ;.r . -X~ ] m.K.t ! | A.:XM.=.U r.' 0 ).- ! lXi.+.p.( v.M.~.bX<.= @.-Xr.l.#X XC.~./ =XXX|.[ zXxX0 4 ",
"XXm.[ I y.;.U K.I.6 6 W ~.q ] ` ..,.w.-X^ | r _ &.] K n.,X1.%XT.,X_ s P.~.@.) =X4.r m.f.Q >XkXH.#Xp.^.-X1X~.F.W  X+.~ Q M.W #X,X",
"[ ~ ,.9 8.4 =.,X! $.;..X4.^ * XX/ ) k.4.S.= l.~ * : 9 y.5.T.- ] p j.0 W W /.F.W .X/ O I.,X XgX&.v._.q.S.-.2.$.u.5 1X$.<X-X0 c.>.",
"a.K.9 P W 0 ] L *X- e O m.i.[ 7 &X^ -.j.I.0 n.Q W e.I.q.jXU.L m.3 0 t.jX1.-X~.*Xi.<X;X:.0.$.W >.U.^ 1X0 I.*Xz.0 <.!  Xi.<.M.;.r ",
"4 @ x.U T ~ o *XK.y.<.9.c.! 9 6 -.t.! P.8.y.> Q ] q [ ;.T.h.6 [ Z.} xX[ ] lX_ g.L.z.-X2.K.jX4.d.zX).a.oX>X~ I.4 * 9 F.0 [ 9 i.hX",
"i.^ K P U . P.~ 0 ,X2.5 &.U q.0 zX| W ^ 2X2.^ U.&XE ;.x.0.>XL.[ 6 n.).U.O * &.0 K.1.k.l.r.MX1X~ zXe jX; kX|.e [ 0 g.XX-.B.2X&.xX",
"2.| -.j.&.K R.4 t.= q.L w kX>XXX{ vX.XM.! =XzX,XxX' o.9.P.S.O.R h.[ 8.T.N.) -X>.e >.^ M.Y.1XP.) E 6.-.T K.n.>.1XXXq T.a.! y.6.p.",
"6 p.) c.} - 6.w.- ] , 4 $.&X{ w U 0 l._ =.M.W $.5 0 w.<.g.+X*.i a.4 T.' k.t.@.q.O M.t w.XXj.T ) g.9 N.] * =.>X X^.>X^ k.[ 0 %.-X",
"W 2..X~ b.q.(.: -.w - 0 y.k.OXoXS.4. .,.:.U W 8 6 $.T |.^ .X%X9._ -XvX>.U m.P.R  X(.+.S.XXx.kXc.4 Y._ *.4 L xXb.a.k.*X0 a...w.+X",
"! 9 0 . | , * 4 5 -Xc.L.1.^ f.. + $X.X;.S.,.U 5 ( K.9 I.y.p.4.P.K Z.gX/ OX( 9 ) W L.*XL.] S.} R.:.W t.n.P.~ * ; : o.q.k.t $.) O ",
"U P d.<.) ) T 9 *.W - + ' R.>.o M.w * P.| ..C.q k.x.;.Y S.| * y.q.vXw *  .vXy.! u.w.+.n.jXE E r.w 5 $.~ j.,X,.c.zX*X7 ,X=.4 5 ) ",
"/ Y u.^ ;.d...{ 0 m.' zXP C.8.:.Q m.c.~ { O.m.lXK ~ >XL R 6.a._.~ P ) XXl.q 5.XXK e.j.c.vX<./ *.:X-.( [ c.T k.~ 9.* -.W 8 j.kXk.",
"..@.v.1.* R ; 0., L * - XX[ vX&.w 5 K P 8 Y @ } >X! ] p.] hX- } ] ~.lXf.4 - zX[ l.8 - ^.o.,.c.g.7   [ 2X,  XW c.L y.5 T OX%Xv.2.",
"$...e - 8.E 6 _ *.(.d., ; ^ O Y 0.$.g.g / $.. >X_ m.<Xk.Y C.=.P.* e.e.C.> f.d.Z.&Xq |  .P.I.*.I a.XXgXm.a c.c.6 S.-.+X8.o.q.> L ",
"4 4 K > W 6 Z./ o y.a._ p.&X@ =.9 y.P ! ] ( <.Y -.a @XkXc.I.9 K.c.[ U >.W , f.+ e.* Z.+ K.L.L.gX0 c. XN.#Xe.;.a.%.kX1X;.K.2Xo.S.",
"e d g.g.~   / b.&X< v.U I e Y ^ b.( P.&Xg.S.] q.K.1X= t I 7 K w >.<.p.=X;.,X9 MXL e.,.o.0.w k.<.0 P P @X/ w I.U $.f.MX1X^ x.U ;.",
"7 >X/ { ; = ,.@ ^.- <.v.vXT.-.k.^ ^.,XS.,.' 1.+Xu.u.^.0.xXa.b.L >X=.e.n.1.-.;.~ %.T > hX0 +X0.! 1XY.b.} > t ;.K.] h.f.6 X.kX) j.",
", P.y.:.u.&X(.Y.0 p w.f.5 _ =.- 6 -.M._.m.>X<.= ;.z.| ;.,XP.0 6.l.k.9.L 9 y.lXf./ R. Xm.>XP.) 3 U vXW J.v.*X$.r ) / K $X8.U.) -.",
"{ 5 N._ =., / 5 K.,.) e.n.1Xr ( @X-.> 7 p.0 k.:XM.,XhX_.M.; ~ b.| { * <.P.| A.>.X.0.zXw.x.C.0.g.y.-.vXL.L.>XOX8.;X$.p.+X<.7 _ 5 ",
"q 5.5 K r. Xf.L ,X] 5.7 L 0.B.Q 3 E , U.^.e *Xg.< ; yXHXUXUXUXUXUXUXUXUXUXUXUXZXa 8.K.K w oX .A.~ oXW _ $.Q c.MXvXkXk.+XL.1Xm.I.",
"K ;., t.' ,.0 n.k.9 E -X X|  .a a *.2 5.L ,X] $XUXUXUXUXUXUXUXUXUXUXUXUXUXUXUXUXUXUXSXk.>X) d.0 ~ U P.c.<.XXL.I S.v.) L K.8.MXe ",
"{ = W w W Y * K.; q 0 - g.{ Y.K 0 8 e.o * K.BXUXUXUXUXUXUXUXUXUXUXUXUXUXUXUXUXUXUXUXUXUXNX8.7 M.z.$.(.a.U.L ^.9 kX$XkXJ.M.2X^.;.",
"X.^ | + w / w U.=XK.K.6.s.` ) +X6 z.5 R 1 8XUXUXUXUXIXFXAXnXnXuXuXuXuXnXnXSXDXIXUXUXUXUXUXKXkX[ x.L ) ,.>.vX- -.%X(.:XMXp.c.^ %X",
"W <.4 U.. 6.8 T U ! 6 E T ;., k.t r f.-.5.KXUXUXuXeXtXyXtXnXnXaXsXsXaXnXyXtXtXrXeXuXGXUXUXUXF.a.n.Z.T.p./ -.W o.@ 1Xq.D.C.:  Xp.",
"O.7 Z.* 1 C.6.9 6 T.+ 6 Y T.K { > R U.k.8.h $ % k tXsXnXmXaXaXaXaXaXpXaXaXaXaXnXaXwX% # DXUXz T ' g.B.zX0 w u.( ) 6 c.I r.w u.S.",
"+ _ t.$.K >.} O I.-.* 9 3 : T.q + 0 | ~ B.8XNXJ wXaXaXiXpXwXiXiXwX9X[.iXwXwXpX[.pXtXiXG # 8XKXa.K ` , 5 _ jXL T ( U. XXX*XX.X.w.",
"T <.s.< B.) , L ..4 [ |.m...L.C.d.u t.o.rX& 0X8XnXwXqX[.F n H [.9XqX9X].F m [.[.9X[.9XH 8XSXNXzXgXy.[ w T.MXX.r.  e 0 P XX~ -.&.",
"6.d.> u C.; | f.f.* , w.* , p uXGXUXuX# 4X8X5X5XnXIXj tX].].[.J ].].].].].].].[.iXH X UXz z uXjXX.x.6 -.,X| kXL p.7 $.0 -X:X: n.",
">.E .X. 8 |.M.' L o @.4 4 y.IXh 8XK.-XK }.8Xj fX[.pXyXfXUXHXtXk X # & & $ % F DXIXqXfX# z 6X8X9 q !  X4.(.*.N.W XXy.* O.K t ;.p.",
"+ _ / } [ c.| L %.' 5 >.M.ZXz ' k.` } rXuXm 4X4X8XeXqXqXqXqX9X0XH G H H H G G F G G G k j NXG 6  X. p { + P.,.,X- =.0 Z.7 L -.K.",
"/.$.< Z.p L ! XX-X_ ~ r = nXq.Q | ZXUXKXKXF W.mXNXeXqXqXqX0X8X5Xj j j k k G n G G G J eX% m k B.< o.e.X.Y - y 1X-..X~ .. Xu.^ 2.",
"y.r + + q S.+ I E M.g.m. .GXt  Xu ..HXGXq n Q.S B c GXBX8X5X5Xz j j j j j j j J 0XJ c N S n qXLXGX* ] q.T =.q.&.y.6 $...;XQ >.! ",
"S.| e , >.y.K o.-X) 3 * T {.;X'.'.'.}.'.&.# W.Q.Z v b b c c b x % $ $ $ % x c x c b B Z S j IXGXHXUX~.L.7 5 w.&X&X9 X.; 5.$X8  .",
"D.b.N.~ / , %.gXT ( : S.}.}.'.|./.'.'.'.'.V.Q.Q.S B B B B b v c c c c c c c v V B B Z S Z z LXLXKXHXIXkXd.t.R zXJ.XXS.M.zXv.3 ,.",
"Y  .n.0.4.K 1.6 -.` { o.E.'.'.E.'.E.V.g l V.f `.Q.D M V V V M v c c M M M V V V B V S B m IXIXIXLXKXGXUX2.p.^.y.5 8.XXX.a 8.z.u.",
"{ T 3 O.Q 2.n.p.9 +.W g 7.7.V.7.7.f V.g g l n Q.W.W.A M A V B V M M M M V V A V V Z S W.].JXJXJXLXIXLXKX}.p.l.r 6 L. .:.e d.2Xu.",
"O gXe  .N.@.<XY <.4 O U #.#.7.s d f 2 d d #.p {.`.`.W.V A A A A V V V V A A V V S Q.Q.m JXJXJXJXJXLXLXUX6XjXe.xX< 6 ^ <.v.8./.> ",
"* 5.S.p ~ O *.<.^ 9 1 ..( s s s l d u f 2 d + s.m E.!.A D D D A A A A D A D A V W.C !.JXJXJXJXJXLXLXKXUX6Xo D.T.a p.oX+X%.6 = 6 ",
">.>.6.@ * 0 + y.K e 9 4.g e.#.s d d 2 2 l s = 2 2 f s s g E.D D D A D D W.D A W.W.`.DXJXJXDXHXHXHXKXGXKXB.n.%.~.q N.y.> 9.W  XbX",
"2._ z.*X^ | @.E $.P @ t ) B.+.s s 2 h 2 d f 7.f V.l G.l E.{.}.b v b b C C C Q.!.`.pXdXDXGXHXHXHXHXHXKXCX_ D.3.+.I 0 +.@Xi.) w.^ ",
"z._ p.Y 6 | =.<.{  .! b.6.7.s s #.s s 7.l @ f g G.G.G.G.G.{.0XM v b b b !.!.`.b % iXmXdXHXHXHXHXKXGXPX}.<.}._.bX9., &X~ Q <X-.XX",
"2.*X] * , w ; K.O @.r } + gX<.H.r.s s o @ s @ # u V.V.G.G.{.V.!.!.W.!.Q.C n B H iXpXmXAXZXHXKXKXHX7X* t - =Xl.;XU.5.j.I | [ @.5 ",
"K $.4 4 r  X;.^.$.} U x.X.;.q S.d.o.CXCXnXDX2 s 2 2 2 d l pXrXF f m H yXdXpXsXdXmXmXAXAXZXKXHXKXCXt - &Xt - c.P +.6 $.5.L Q 1.>.",
"3 $.' ~ h.).a.P.T g.K 3 _.E + 3 r.&.@.= hXVXnXyXE.s s d f J ].qXpXdXfXfXAXAXAXmXAXAXAXSXSXVXcXT ,.a._ = 9 g.OX&.: <.M./ &.M.w &.",
"d.4 L 6 t 0.L = n.q.k.=.{ P.q bX( ~ ,.Z.g 6.. P.CXVXyXeX0X0XqXdXfXBXAXAXSXAXDXSXDXNX7XH.U.p._ :.! _ w Y P.4 %XU f.i.c.;X@X>.a I ",
"( . b.M.D.n./ U.>.,X$.5 | O >.o , L I 5 =XF.C./ ! } >Xy...I.VXVXVXVXVXVXcX6Xg d _ 1 4.` + w.;.i.OX9 %X8.<.5 6 E.:.A. Xr <.1 h.kX",
"7 7 ) ' | [ U 4.* ) ~ L *.h.R.I.9.K f.r hXP 8   a -X5 OXT :./.> 3 [ 0 +Xk.#XL.;.g.S.p j.L ; u.y v.l.( _ D.l.[ =.f.I @.8 K u.i.@ ",
"b.9.U r * B.5 7 8 lX+ t.(.5.t.z.) ~ a.0.<.X.<.* 9 < T + > lX .U.x.q 2X. L ! / <.@.9.m.{ T 9 :X6 v.8.+X=.R.~ u.9.:./.9.*.^ -.T.$.",
"@ = a E ; 1 4 >.=.8.! I.L.4 6.=.} d.*X<XjX).K 7 K.) 1   { 4 P R 3 L.} { O <.=  X@.0.P ^ 8.Y.f.<X] ! ` 5 g T 0 g XX' ~ { lX<.;X4.",
"g.-.f.* _._ q zX5 XX=.q.oXw L.=X< = <.K ; > 0 a K t Y +X7 ] < K : } ; E | . +XxXK * %.K 5 1 ! R.6  X<.X.d.e z.^ Q ^ w I e '.2.2.",
"X.0 M.9.w b.k.,Xq k./ X.~ #X9 <Xx.w >.t = o k.= x.{ d.XX5 T h.| 0 -.q.8 K *.| } ; y +.@.k.+X8 ;.&.+.8 ^ Q bXy g Q c._ -.g.y L +.",
"U } f.h.0 ;.5 OXq 3 E y.^ P 9 { I.*XO K >XU.i h.} g W K <.W | 8 +X=X} 8 y.q.9 +XQ m.@ - t ! _.4.{ %Xf.h.*.P.<.)..X<Xc.W gX:.P =.",
"K 7 K.Q d.- K.*.<Xg.9 m.( [ b.,X6.>.k.*.r.T b.;.) i.q.z.t 9 ^ 9.@ P + ( *X9 _ d.=X4.5 r.8.~ ..^ / *X<._ + 3.[ <Xl.7.~ { gX{ :.<X",
"| m.;.2.T ; 6 ; t 8 { U D.` &.T r N.$X+ <.I O ( / 1Xc.<XM.= 8.@ S.%.) 0 &.@ ) e _ >Xe .X@ 4 u.0 =.A.U.9.=.n.^.XXw p.+.. ~ #.-.y ",
"9 1 q.w.n.} + : ..f.K L K.l.8 Q XX+ ;.8  .%XoXx.] > f.L g.9 [ 5.v.K 9.*X$.* K -.M.=.K.4.[ : W 6 @XbXZ.8 kXh.i.3 P.6 0 @.lX_ W D.",
"t ] R ,. XF.v., f.9  X&.>.<.T k.r ,Xi *.P .X8./ ) ' I (.0 w , F.q = 3 * W B.8.o i c.zX8.* W u.( d.] U.9.o.&Xz.v.l.u ~ ^ ! +.%.W ",
"Y _ | 3 - a.| , y @ / @.+.*X_ K 0 M.j.q.= T / ;.(.U 5.} N.*., H.q lXOX= L.N.1X8.H.> I.y.4.L.kX:.c.e >.X..X~ ^ 0 ( ^ ( $.%X X+Xv.",
"! Y * O 8.O / k.0 K (.C.t L 4 ! ' >.<.~ Q f.../ * ) K * 6.XXD.= 4 W , k.8.Q 1Xv.>.u 1.6.f.W ,.@.$.;./ >X^.; i 8.<.<XOXbX^ &.[ S.",
"P 5 *.<.-.Y E 6 < d.> 9 q 5 y.' $.Z.0.u.T -X_ $X| g.2XH.5.U 6 f.b.N.a.}.L.u W p.L ).-.I + / :.8.7 &.| / 0 v.8 e , + L W = <X-.B.",
"o w 9.=._ q 8 + 7 } X.) > 5 O x.l.* ~ 1 | w.m.. <.= ;.^ ~ ; @.o a.e T : 9.5.<.0 $.T Q >.{ ,Xo #.3X@.7 L @.>X1X2X2X@ ( 0 W  X=.+.",
"9 Y 5 ^ [ >X;.} ' 5 - > U / ' D.6.m.zX_ $.>.#X1.; g.K P R i.9 $.;.kX5 xXI.1 P.> 1.w ] /.6.#X<X1X8.g.4.W $.(.OXw.F.2X_ 2.6 -.<X%.",
"p =.| K.Q * / ( 8 / T L ~ ; * U.O T ~ e.^ j.[ ;.m.v.d b.&.%.) ~ [ O =.4 Q e f.P.(., 1 M.w.%XS.r 5 ;.S.#X, _ bX$.+.[ ( o u.@.F.+."
};
