/* XPM */
static char *_0c4e3868ddc4b4bddb331bfdaa95a0cz0BwmyrsKFCHYDFf[] = {
/* columns rows colors chars-per-pixel */
"64 64 255 2 ",
"   c #010D00",
".  c #031403",
"X  c #021B03",
"o  c #072604",
"O  c #022C02",
"+  c #023402",
"@  c #033C03",
"#  c #0A3908",
"$  c #13390B",
"%  c #133513",
"&  c #034402",
"*  c #094807",
"=  c #144808",
"-  c #035303",
";  c #0A5304",
":  c #035B03",
">  c #0A5C03",
",  c #0B540B",
"<  c #065A0B",
"1  c #155709",
"2  c #135C0B",
"3  c #174612",
"4  c #0A5A11",
"5  c #1A5715",
"6  c #265915",
"7  c #036402",
"8  c #086707",
"9  c #046B03",
"0  c #0C640C",
"q  c #0C6C0B",
"w  c #12640B",
"e  c #146C0B",
"r  c #186808",
"t  c #047302",
"y  c #0C7303",
"u  c #047A02",
"i  c #0B7C04",
"p  c #03770B",
"a  c #0D740B",
"s  c #0B7C0A",
"d  c #137404",
"f  c #127C04",
"g  c #1A7B04",
"h  c #13720C",
"j  c #1B730C",
"k  c #137A0B",
"l  c #1B7B0B",
"z  c #186913",
"x  c #1A7814",
"c  c #23690B",
"v  c #25770B",
"b  c #38750D",
"n  c #256918",
"m  c #277718",
"M  c #34781B",
"N  c #2D592A",
"B  c #286824",
"V  c #346A29",
"C  c #377926",
"Z  c #317A28",
"A  c #45772D",
"S  c #517A43",
"D  c #048302",
"F  c #0C8403",
"G  c #0A8808",
"H  c #138303",
"J  c #148C02",
"K  c #14830C",
"L  c #1C830C",
"P  c #188A08",
"I  c #1B8C0B",
"U  c #0A9205",
"Y  c #159303",
"T  c #1C9303",
"R  c #1D930C",
"E  c #189809",
"W  c #198512",
"Q  c #1C9713",
"!  c #278807",
"~  c #23840D",
"^  c #228C0B",
"/  c #2C8C0C",
"(  c #348B0B",
")  c #249704",
"_  c #2A9D04",
"`  c #24940B",
"'  c #2C940C",
"]  c #249B0B",
"[  c #2A9C0C",
"{  c #37990B",
"}  c #339C0C",
"|  c #238314",
" . c #258B13",
".. c #2C8D13",
"X. c #2A8719",
"o. c #358917",
"O. c #2C9312",
"+. c #299716",
"@. c #3B9C13",
"#. c #379918",
"$. c #1CA105",
"%. c #2AA407",
"&. c #36A805",
"*. c #33A30C",
"=. c #3CA30D",
"-. c #3CAC0C",
";. c #3AB308",
":. c #2AA313",
">. c #32A313",
",. c #3CA313",
"<. c #3AA819",
"1. c #38B116",
"2. c #2C8724",
"3. c #388926",
"4. c #399825",
"5. c #368F30",
"6. c #3AA726",
"7. c #38A62D",
"8. c #4A9510",
"9. c #459919",
"0. c #44A807",
"q. c #42AC0C",
"w. c #4BAC0C",
"e. c #57AB0C",
"r. c #4AB303",
"t. c #47B709",
"y. c #4BB40C",
"u. c #57BB07",
"i. c #53B50B",
"p. c #47A818",
"a. c #56AB17",
"s. c #4BB214",
"d. c #49B517",
"f. c #53BA13",
"g. c #56B618",
"h. c #5ABD1C",
"j. c #63BC0C",
"k. c #63BA18",
"l. c #71B811",
"z. c #478829",
"x. c #489827",
"c. c #468836",
"v. c #489834",
"b. c #579732",
"n. c #699B22",
"m. c #48A727",
"M. c #56A929",
"N. c #4BB527",
"B. c #57B927",
"V. c #53B42B",
"C. c #4AA935",
"Z. c #57A938",
"A. c #4CB435",
"S. c #58B737",
"D. c #65BA29",
"F. c #6DAF32",
"G. c #66BA37",
"H. c #5AC308",
"J. c #4FC211",
"K. c #5BC317",
"L. c #65C20C",
"P. c #67CA08",
"I. c #75CC0A",
"U. c #6BD10A",
"Y. c #77D507",
"T. c #64C312",
"R. c #67C818",
"E. c #6CCB1B",
"W. c #73CB16",
"Q. c #6DD118",
"!. c #77D416",
"~. c #4EC725",
"^. c #5DC227",
"/. c #5BC335",
"(. c #67C628",
"). c #74CA29",
"_. c #6BD12C",
"`. c #79D529",
"'. c #69C637",
"]. c #75CA38",
"[. c #7AD639",
"{. c #3C8041",
"}. c #539045",
"|. c #64984D",
" X c #59AA46",
".X c #59B644",
"XX c #59AE50",
"oX c #67B949",
"OX c #74B947",
"+X c #6DAF51",
"@X c #6CBB58",
"#X c #78B966",
"$X c #73B268",
"%X c #5CC148",
"&X c #6AC647",
"*X c #73CD44",
"=X c #77C949",
"-X c #6ED34F",
";X c #7AD348",
":X c #6CC554",
">X c #78CA57",
",X c #7CD556",
"<X c #7AC965",
"1X c #79CE6B",
"2X c #87DA11",
"3X c #8CE21B",
"4X c #85D729",
"5X c #8FD637",
"6X c #85D938",
"7X c #91E62F",
"8X c #A0EB36",
"9X c #8FB552",
"0X c #88B972",
"qX c #8CD34A",
"wX c #87D849",
"eX c #83CB54",
"rX c #87D858",
"tX c #95D95B",
"yX c #8BE346",
"uX c #97E54A",
"iX c #96EB51",
"pX c #98E659",
"aX c #A4EC42",
"sX c #A5E958",
"dX c #85CB68",
"fX c #95CB69",
"gX c #89D966",
"hX c #93DB68",
"jX c #8CCA74",
"kX c #89D974",
"lX c #97DA77",
"zX c #A5DA73",
"xX c #8DE466",
"cX c #98E667",
"vX c #8EE574",
"bX c #9AE575",
"nX c #A6E96A",
"mX c #ACF16E",
"MX c #A6E977",
"NX c #B5F376",
"BX c #98D987",
"VX c #A5DB8D",
"CX c #9AE685",
"ZX c #97E490",
"AX c #A7EA88",
"SX c #B8F686",
"DX c #A6E995",
"FX c #B1EE92",
"GX c #B8F497",
"HX c #B5EDA8",
"JX c #B8F5A5",
"KX c #C6F394",
"LX c #C7F8A8",
"PX c #D7FAB6",
"IX c #D0F9C3",
/* pixels */
"xXm.vX;XQ M.<.X.J o.kXlXr.K '.2 0.( M.r.) %.+.8 (.vXU ).+.+.9 .X'.[.4X(.oX>XMX{ 4X9.5.oXV.' e D A.B.v.0.OXaXv u.+.G.*XV.K (.jXwX",
"C.H : C <.b b.qX4.=X(.#.S.,XlXZ.) W.D.f L m d.*XQ 4.V.S.W.G G ^ (.i.T AXqXNXY.nXF.!.VXM.rX@.rXKXV.M.M.*XrXo.+.Y.MXoXAX..w.v Z.L ",
"q.8 s.A LXv d T VXv I ).T l s.n . MX[ *.'.&Xm ^ <.XXxX].y.L Z.&.v 7X; ! SXD.8.G.~ ).6X2XKXg.= x.cXC.l.sX6X X2X| gXrXqX0.DXGXe 8 ",
",X'.&.l A.N.P oX&Xe e | 4X5 *.$.X.N.N.bX>.<.n @.r.=.D `.bXL.jX=XvX=.b wX2Xz...kXb.n G.L.( pXAX#XsXOX4XzXAX2XoX! wX@.' ( [.L sXbX",
"-.[ d.a p.8 y.nX` 0.p.eXp.' * rX.. .R.x.oX= W.} & > u S.c.gX- ,.2.L.d ' ! 5X+XI qXX.+ &XbXwXBXr.(.uXB.oXH.j.8.(.q MXw.nXlXl D.i.",
"u.'.i K ~ k >.Y hX* L O '.F.&.t gX*.i.T.:Xg `./ ^ C.:XB.CX>XI (.< g C.ZXL.zX2XhXn.nXVXe.N.q.^ g.>X_ MXg &XkX!.a f.` wXF.h.).p.n ",
"e # '.W R ) o fX&XS.K.M.(.) H 1 i.V.) =X6.S.> ( ,.r &.p.,XY.w &..X:.JX&.[ SX#.W.=XQ.lXR.OXCXx.K.FX7XL.wXcX' :Xq & k  XL =.y Z.AX",
"F.} D K R X ;X_ k bXk.0 y.I B.k FX#./ } NXk.@.=XgXQ N.B.N.pX>X&.w `.3X>Xo ; r.f &Xj.(.W.C.LXMX) AXv CX: FXqXv &.d U.tXi.}.NXr.GX",
"k.>.j.j.r.J ,X8 V.= B.J x DXpXrXr.JX9X_.R lXDXbXFX&.m.M.=X'.4.L Y.=.m.,X[.O.bXa.| d.{ ].-XMX;X..Q v.u.) '.`.s.MXgXz ;XT.] S.v.F.",
"z G.O.(.*.< c.N.- *.2 8 w.rX;.x I f Q.4.r.&X~ 0.a a A.g.I.cXy.V L.9 ,X%.T..X#.B.o ).m C.rXH.E +.U.F ].} * y.bX;X4XhX} R.&.h i.lX",
"' g.rXE '.^.wX: u.x - h S.E.uXyX+X4.3.a.g.I | y 0 w.R wX{ dXjXM.#.lXJXy.^ D.=XI wX[.e.F.rX/.AXB.9 >X4.t.8 L GX).P.R.hXf u.5.V.sX",
"] y k . *.2 * 7 q lX(.=Xj.} L.X # eX,X<.oXd.I e X.&Xp :XD./.x.;XG .XCXm iXo.s +. .=XhXOX@.oX-.gXm.` V._.;X%.* : > <.B.(.m -.+.o ",
"L P K.g.+.} P K t.' * @ %.<Xa.o [.h * qX,.3.XXh E.B.p.U oX>., S.V.HXL @ 3.LXG.E (.V.8.`.ZXE Q A.c h 0.] k.bXd.R.DXhXt MXt.0 q +.",
"..G D.{ p.K.2.-.d '.%.AXK  Xx.s.( '.(.[ ;.C.'.SXH %.cXK P }.H.7X) P +.gXE.z c.rXF C.T.(.JXg.m f.xXu.o.&.^.) Q.[ V.* u.L d j.MXE.",
"Z m.).j.& W : N.1 H * - ,Xq.JXt.j q D K t Y o :.cX^ =./.*.BX- :.*.2XSXH.8 - DX&.).y ; 5X6.d.(.U.u . =.NX> wX! (.f S.y Y uXjX).B.",
"r.2.v ; N. .h #.t.6XR.2 : } O U N.q.W.z.X.@.. nX#.'.mXR.Y  Xy.;X& Z.C. X, P.T..XrXz <.X.;X:Xr.L i.rXvX'.Z (.).r oXu.cXM.<.B.; P ",
"8 9 F , ^ w .XX.X S.P.#.G.dX$ w.s S.L ' =...h.U u.C aXAXS.&Xu &X^.=.^ d.' 5 P.# C.* .X+ *X*X*XZXj (.wX[.pXA.p.u.e.AXMXp.&XNX4.&X",
"c A U.I.%.   ._.gX4 ).I L ~ U } _.o.*XrXP.oX{ B.&XnX= m ~ D K x i.h.G.jXp.lXs KXL C.s.6.N.j (.i.l K H iX2.x :XJ r.L.LXAX} /.G p.",
"t cX| &.: = s.$ 4X: g.`.JX,Xu.Q.' 4XMX@Xs.%.T.pXG.D.4XN.FXH._.J pXy.C.4Xj.i.p.] w.) > DXk iXC.' MX-X_.*.* m -.OX,.Y.j.r 4.DX#.L.",
"1 ;XS.g.(.gX6X>Xd V V.P.0 @.w.- j i._.6X&XcXf.= 9.!.q.p.bX;Xv v.E._.A.H t B.SXP.m 1XeXG.xXwX+.7 I JX^ &X_.nX0.B +.^ F gXp.-X/ u.",
"y.q [.#.w.1  .r &Xd.' C.`.MXn 4.aXi.4 s G.f T.cX].lXVX8X].; ` `.-.&.* g.;X6.XXy.#.m.GXB.S. Xh.U.V.i.HX=X=XcXuXm.lXw.S.pXD.9 @.p ",
"z 3.q K C.wXP.J vX-.z.p Y a.}.( 8 R 1 eX4Xv hXI.< > pX;XM.Z.y.oX8 AXq.-Xg.1XH.d x m.'.G x yX3.XX{ yX! #.w.( (.LXHXAXW.pX].MXG.>X",
"H <.> A.%.d.g _.R.p I lXwX,.3.C M y.6 z.J bX>.&XGXKXyX'.MXE.9 HXv.5.[ ` S.>.W :.Y h ,.U.pX+.K.x [ P ,X(.f.rX=X^ oX).X.P &Xm.JXb ",
"d.= ^ m ! Y & :X< z j - Q.;.-XD j y C.O # '.#.JXK.h.[. XwXf.[.AX) -.1 + v.xXGX_.i #XS.i w.m.p _.W.r.`.H.>XJ 4Xp AXgXNX%X'.SX4X<.",
"#.} 1.# x ~ j <XgX&X&Xv.J.E +.tXj !.a W 1 8 P.m Z.p.].`./.E t.wX&XL t yXSX-.P P.-.K.W * <XyXAX-./.H O.d.f.HX: i.fX6XxXPXS.R.#.fX",
"L f.8 >X. v.a Y R Q 2 ] E d.1 E.m 6 H.i.Z.].0Xe H w.Z +.M ) }.e 0.,XAX<.m , o 9 0 R oX| 6.u &.H.`..XrXS.~ y./ 6.% MXB.OX X> qXG.",
"4.u  X* 5 .Xv.a w ,X# h U =Xs t.; W >XE.p.C.tX<.:XeX#X] X.I K.u.0 9.Y S.- xX! - 2.s.s..X9 >.W U %.U.|.AXk m D.o.o.e (.L Z.x B.oX",
"+ #.A.q.s p.1.+ :Xu.* t 9 > ,Xz # a q.:.4.>.dXm.n LX0 wX1.@Xh d.q K.c.U Z 1XSXAX* #.7.W.iXrX/.H.D $.0 0 4.bXi %...eXqXrXhX4.4.V.",
"` g.f.< |./ ; Y 2.e &.qX'.3.]. XK.N A.4.y 9 x C.%XV.w hX0 r.dXq /. .K.- * K C.'.g.u.a. .4.'.I.AXBXS.,.x ,XLX4.Z.  c l L rX%.r.r.",
"b.^.< N Z.: <.P.H.* 2 S.* 1 M J., $ & uXN.:XR.rXt.0XE ^.%.:X7 m.3 K.S.v./.+ r.e U.J s 4.q.q.CXDX4.(.e u.bX,.DXJ '.t 0.g lXcX> `.",
"y.I >Xo a tX).%.H % o.9 8 S.z N.k /.lXi H.1 mXp.>.HX) :X`.9 . , ZXC %XCX[ D @ -Xx - CX:X9 _.M.G n +.;Xx.5Xt.].^ rXS.& 7.K v p.oX",
"* #.X.:.=.^.@.J i.&.e w.].` +.$.P.E >.9 < 9 jXz w jXU 7 |...% ,.>.CX Xk xX/ $.#.K.;X7 ).GXsXH.w [.X B ;.@ ;Xd.bX- y.s .Xt J i.&X",
"5Xy.2  Xm L R tXlX9.%.B * : S.` -.C.[.#.| Q U #.5.6.1.DX%.n t.y B.DX- 4 [.%.rX`.%.1.N.a '.g.E f : 6.C.4.U - b MXu.eX' 5.qX(.} k.",
"/.5 # # n oX@ l I &XU.'.3.iXm &X* q 7.gXj C.+.kX8 Q .X,XG q /.;.p.L < ` >.| S.xX9 7.  ;.-.d.oX-Xi * =.h.R y.B.q.S.d q.5.fX( s./ ",
"oX<.v 1 s.A.G 7.lX>.8 @ T @.; * U :.u (.r.:X#X5 gXW qX1X2 {.m.#XS.'.+ - K 2 e vXY Q.M 4XA.qX@ $Xp.R Y.&X9 a V.xXgXf 2.8 z.dXy 2.",
"OX_.[.] X.2 i.CXT o.> .X4 ].o p.u.H.o >.mXBXR 6.=XN h @ i 4.g.o m ; ` &Xu W ;.$.R.-.^ x 6X) N..XK 6X# MXu.Z.W DX%XrXoX].GX).8 d.",
"U 3.`.N.z.H L.r u.$.;. .5.#XBX2 h ..1.gXVXbXe x X.K.sX'.-.z s e 3 lX# 1 % O.N.j x.# H.,XH.].Y u.6.h <.e.T.G.4XS.e p.rX4.C m.W.D.",
";.Y 8 c.#.j.).S.u 8.X.m %.} G b A l Y X.2.DX6.S.`.5 8 ;.p ,X5 (.rX]., <Xq.MX.XI.[.T.s ;.L pXJ.^.B.5.Y.2XC.OXW.x w >X3.a.m K.NXD.",
"# lXv 3.;X9.sXD i.0 O ^ .X=XyXSXf.K rX' Z.kXB xX1.S.8 m N.h :X<X2 . <X2.J.B.mX`.P.wXh.4XE.IXt Z -XE !.;.4XCXm.GX4 j { f.(.x.6X> ",
"@ c.&XB ] + t.h.>.k 5 2.: Z.L.D.uX).P 7 ~.8 # d.p.< & Z.K n 7 ` JXq.4.DX6.jXH D + E 8 7X>X@ p.r GX;.X.LXw.# eX=XC S.uXiXe.d = c ",
"g.d.v.O , k # S.G n u x.c.J c.k DXN.< +X; z xXm.h S.a.Z @XtXa j.#Xi.z.xX, * * H.,Xa._.f l H.n PXd.l m t #.).e.2Xn ].Z.< a.P qXLX",
"g.@.2XxX/ p.9.Q 0.I % m #.: 7.C -X4 < ~ @Xx bXi.E S T.(.N E 5 m.,.> < @.S.Q.t <.;.g.G.f `.>. .E.M.bXMX! @.OXl.a. .h 8.aXF.#.M.[ ",
"!.@.G.G r <.t.g.-.2.+.E.b.D B - !.=XC.,.%.G U U u.U B.bX; j #XfXo.S.#X9 DX3 5.;XjX,X~ (.-X* G.6 h sXcX0Xg.0X3XKXM.r gX_ / mXi.tX",
"k.lX*.* , v : &X+ 9.c <.@ BXK.@XU E kX X- +.V.X.p.rXe +.;.Z.j $.= f.f.9 p.;.g.s.,.+XA >XrXSXtX=.P.X # W * hXE.zX@Xz.R.! q.&.9.9 ",
"F 0.9 8 n wXm.`.-.:.^ ~.3.m.z G.K.6.) J.4 }.vX* x  X+.>.sXwX(.z.d.p.6Xq.GX@.# V.h.G Z.I jXm.G.H.+Xm ; tXm : (.l 8.0 w.b.g ' j.a.",
"7 -.*.%.Y.3XH.;X) Q.F 7 7X] @ 7 F.r.@.# V.A.X 7 KX# ,.7X- SXa R.m.Z.i *Xo.#.-.J K T.t D 7X2 u.G f.P.#.3 t U.pXr.> a.].~ r.*Xj r.",
"f.y J 1 m N.P 1 `.M.E.s.;.yXz LXm _ s.oXS x.X ^.g.4.N.].H O B._ pX3XBXP.M...A.L G.,.|.p.-XG.#.e.) @.G Y ;Xw fXv P.F.'.MX8Xg.M W ",
"o.. _.].OX4X~ >Xy.bX-.a } o s.o , U L h dX@X XX.^ *.cXS.l $.8 =X>X! 1 @.).|.m A 1., x.$.* V.,.OXtX9 jXC.i.8 c OXg.XXqXn d.1 I.FX",
"9 t ] %.,.,.K x.& +.%.F q.Y.,X:XM.G P.B VXG y   C lXz uXE a.5X; 7 &.x pXR.sX6Xm.I.oXm K.G - k.n ).L.o.p.oXE.0.r.j.I p.y D D.F.$ ",
"`.Z.L n * v.a 9 s NX# Z.qXx.Z.!.' :.H.N.f.5.h.& a , Y @ < SXC >X/.q NXX G  .| f.x.M.G.;.E D hXr `.m.xX0.dX_ D.M.n.5XM.y.{ i.>Xw.",
"$ 3 C $.> N 9 a.s.m.` &X*X> v.d.%.K.hXmXbX3XH u &X+.5   ;.7 K W 7 =X] t.o J.= wXp.m.K 9.m.,XL.mX*.) $.a A ) v A yX&.E q.SXi.zX9.",
"P.f.P.& 4X<.z DXh rXt.B.yXx &XvX4 3 e.D < ; k C D m U pXs >.* D : *.< R p.X tXGXF ; w.G e 1 ) dXr yXe.4.K.v !.8./ O.W l v 9XD.k.",
"4.g ].M.l _.R.cXn K.| 4.%.sXs zXB.L d.m , o R.= /.-.R.gXa E Y.<.g u.N.d F ;.<.*.: b 8.x.R.pXy p.u.8.s ' / KXc A / E.4.u.W.b H @.",
"I >.T.Y.k p.w iXj 7 +.S.@.K i ;.:XlXO s nX=XV !.<.A ! D f.v <.y cXhX>.i S.V.s pX/ '.o - m ^ 8X#.:.fXP.I.t.wXg.7XeXzX(.' BXa.K i.",
"G 9 &X( h.- &Xy.nXP.i '.X.&.(.bXv.w.K.t.Z.T (.s.+.F.B.Q.M y } M.$ W # X.hXs @.k.kXv.r Z.m.[ 5.'  .hXs.@.@ l.&.mXI.b.[ &.zX[ a.nX",
",.'.d.k.E ; d : m i ;.R OX%.r.U n [.dX# g.L + 3...MXE.nX].* m.$ OXw.[ h r.$ [ g <.cXv eX$ 0 k.i y.$X>Xa.w.`.4XrXm F.@.X / n.u.b ",
"p 5 B.V.`.-.@ > 2.U.D Y oXW.y ( rX+ p.i M fXyX^.*.< U.g R.F %.b.).D M.tX@.& i u.'.s.:X9.&.; ^ c 8XKX.Xd AX2XF.7 ;Xr g 4.SX#./ OX",
"v *.I d.yX+X).1 L.d ;Xi.a.K.E R.n bXV f.L <Xm...+.%.L 6Xg v , +Xz # 9 * /  Xm.o B ).FXm.- ( D.o.K.*.>XM.6.rXW.`.W.N _ ' ` 8.e.! ",
"G @.1.< & H.<., v % ..9.8.cX@.G l ].L.N.* Y ..p.[.^ v.>.].J., #Xv SXuX= *X6XMXm.$X, oXG.x.=XAXa._.v s.5.eX) @.a o.{ o.0.jXwXpX).",
"+.U & O C.O X.K.e F 6X Xx H q ! %.y.h.' ( P.4.m = +.G & x.rXOX= q ~ 2 k.m.! nX].w.V g.v.j./ s.x.-.p...cX4X7 B 9.g.nXaXKX0.r.&.oX",
"K q t.f.u.D :.j 4 J.< a z x Z.%.q. XN.D.T hX#.dX-.I.NX#Xb.W w P.'.[.P.0X>XN ! G.H 3Xf.P # | p.a.y e.,./ l ).u M 1 + G L $ nXg.c.",
"O x M.w.4.c y + u *.4.+.; q O /.W.& %.5 6.V.'.X g.* <.} _ - 9.o P.v K > M.c.H.d -.I { a.r.MXo b.NX9.t g 8.cXMXmXNX$ o.v ! wXw.a.",
"p U h ' *.cX9.1.] e - 2 R ~ %.oXv.].DX#.0.s.sXj.7 I.G k W F.s 0.p.AXa SX=X3 qX< j.L =.5Xv.sXzXMXC.I.x.^ q.6XuXB.+XNX,.R.r u.cXe.",
"B q.p.&X/ ; / X.y X.T H %.- * >XO T ) C.@.T.=.p.'.).V ).r.i.O.' &.O y.8 ..~ T.=X6X; 5 ].V.dX&X6 a q.oXsX1 #.KX0.8.=.M o B.8.@X8."
};
