/* XPM */
static char *d8d4d5a9dfc74c41f1b59d0a62fffd27DdcqiZFkroEsTFOR[] = {
/* columns rows colors chars-per-pixel */
"64 64 255 2 ",
"   c #010000",
".  c #090803",
"X  c #120D06",
"o  c #011A04",
"O  c #191207",
"+  c #251B0C",
"@  c #042803",
"#  c #063705",
"$  c #13300F",
"%  c #2E2310",
"&  c #272727",
"*  c #323030",
"=  c #353637",
"-  c #4C381A",
";  c #463D2E",
":  c #074805",
">  c #164F0E",
",  c #025302",
"<  c #085805",
"1  c #15570A",
"2  c #245B13",
"3  c #036C03",
"4  c #096806",
"5  c #176608",
"6  c #126C0B",
"7  c #087804",
"8  c #0C720A",
"9  c #167809",
"0  c #0A6B11",
"q  c #186612",
"w  c #197912",
"e  c #23640C",
"r  c #25790A",
"t  c #296715",
"y  c #277919",
"u  c #327D12",
"i  c #2A5D25",
"p  c #317426",
"a  c #5B451E",
"s  c #4D472F",
"d  c #6D4F24",
"f  c #516B21",
"g  c #7A6B2E",
"h  c #343A44",
"j  c #3B4B58",
"k  c #485871",
"l  c #576464",
"z  c #865D2A",
"x  c #8E6931",
"c  c #986C32",
"v  c #A56D2E",
"b  c #A16D33",
"n  c #A47435",
"m  c #AC7A36",
"M  c #A87638",
"N  c #A47A3B",
"B  c #AC7D3A",
"V  c #B47B37",
"C  c #B27D3A",
"Z  c #9F7D50",
"A  c #0D8402",
"S  c #088805",
"D  c #178707",
"F  c #0B9406",
"G  c #1A9706",
"H  c #1C8912",
"J  c #25870A",
"K  c #348A09",
"L  c #24940C",
"P  c #289909",
"I  c #37980A",
"U  c #349C0C",
"Y  c #288815",
"T  c #368818",
"R  c #2B9814",
"E  c #379916",
"W  c #29A307",
"Q  c #38A609",
"!  c #37AD0C",
"~  c #3AA617",
"^  c #2D8722",
"/  c #378924",
"(  c #389725",
")  c #30992B",
"_  c #3AA427",
"`  c #4B8A0F",
"'  c #43990D",
"]  c #468B18",
"[  c #449916",
"{  c #46AA0A",
"}  c #5BAD08",
"|  c #48B506",
" . c #4CB40C",
".. c #55BA0A",
"X. c #46A818",
"o. c #55AB18",
"O. c #49B416",
"+. c #57B816",
"@. c #61BA0B",
"#. c #66A716",
"$. c #64BB18",
"%. c #489A29",
"&. c #489937",
"*. c #519131",
"=. c #749537",
"-. c #48A727",
";. c #54A929",
":. c #4CB329",
">. c #58B826",
",. c #4AA734",
"<. c #55A737",
"1. c #4AB236",
"2. c #57B736",
"3. c #66AA2F",
"4. c #65BB2A",
"5. c #65B935",
"6. c #5BC208",
"7. c #5AC317",
"8. c #67C80A",
"9. c #75CD09",
"0. c #6ED40D",
"q. c #79D20A",
"w. c #68C618",
"e. c #75C819",
"r. c #78D316",
"t. c #59C230",
"y. c #69C629",
"u. c #74C927",
"i. c #75D329",
"p. c #69C636",
"a. c #6CC43B",
"s. c #77CA38",
"d. c #77D238",
"f. c #56974A",
"g. c #5BA945",
"h. c #5BB747",
"j. c #5FA554",
"k. c #66BB46",
"l. c #70B24F",
"z. c #67B855",
"x. c #619673",
"c. c #7AB366",
"v. c #6AC646",
"b. c #77CA47",
"n. c #7DD545",
"m. c #6BC653",
"M. c #78C858",
"N. c #7CD357",
"B. c #79C866",
"V. c #7FCE6D",
"C. c #88B515",
"Z. c #AA813A",
"A. c #AD823D",
"S. c #B48237",
"D. c #B4843C",
"F. c #BA853D",
"G. c #B5893E",
"H. c #BB8B3E",
"J. c #BF923F",
"K. c #C38B3D",
"L. c #C8923F",
"P. c #83DA0E",
"I. c #98E81F",
"U. c #84D82A",
"Y. c #87CE35",
"T. c #85D737",
"R. c #93E635",
"E. c #AB8542",
"W. c #B48541",
"Q. c #B58A42",
"!. c #BB8C43",
"~. c #B98946",
"^. c #BD9244",
"/. c #BC934B",
"(. c #BC974A",
"). c #B09752",
"_. c #A1A95C",
"`. c #C28D42",
"'. c #C68D46",
"]. c #C39344",
"[. c #CA9544",
"{. c #C59845",
"}. c #CC9A45",
"|. c #C3944A",
" X c #CA954A",
".X c #C49A4B",
"XX c #CC9B4B",
"oX c #D29B46",
"OX c #D29D4B",
"+X c #C59A53",
"@X c #CC9D52",
"#X c #D39E52",
"$X c #C7A14E",
"%X c #CEA14E",
"&X c #D4A14D",
"*X c #D9A54C",
"=X c #CCA252",
"-X c #CBA358",
";X c #D4A453",
":X c #DAA653",
">X c #DBAA55",
",X c #D4A55A",
"<X c #D6A858",
"1X c #D5AA5A",
"2X c #DBAC5B",
"3X c #DEB15D",
"4X c #E0AE5B",
"5X c #E1B35D",
"6X c #D6A962",
"7X c #DDAE63",
"8X c #DEB264",
"9X c #D2B169",
"0X c #D8B368",
"qX c #DDB36A",
"wX c #E3AF61",
"eX c #E2B363",
"rX c #E3B56A",
"tX c #E5BA6C",
"yX c #E8BA68",
"uX c #E3BB73",
"iX c #87D949",
"pX c #88CE50",
"aX c #87D658",
"sX c #94D95B",
"dX c #A9D15A",
"fX c #8CE44D",
"gX c #97E548",
"hX c #99E759",
"jX c #A9EB57",
"kX c #88CB6A",
"lX c #88D767",
"zX c #96DB67",
"xX c #8CD375",
"cX c #98D87A",
"vX c #A2DC6E",
"bX c #8BE465",
"nX c #99E369",
"mX c #9AE578",
"MX c #A7E969",
"NX c #ABF072",
"BX c #ECC378",
"VX c #CAE47A",
"CX c #4E6EA7",
"ZX c #708B94",
"AX c #6F8EB6",
"SX c #77A3A3",
"DX c #90DC82",
"FX c #99E389",
"GX c #A7EA86",
"HX c #B2EE90",
"JX c #B8F596",
"KX c #B6F1A5",
"LX c #F1CA82",
"PX c #C1EF98",
"IX c #CAFAAD",
/* pixels */
"p.G nX:.xXy.S I 1.6.W lXlX@.H n.4 { Y >.>.T w V.D mXA Q H m.3 z.p.y.gXnXk.HXdXNXq a.) X.~ 9 S ,.n.6 i.mXU.pXN.kXnXmXJ aXxXa.-.3 ",
"aX .-.3 0 &.X.:.$.I ^ ~ , :.a.c.*.R 9.n.> 8 q R a.6.iXPXg.W F L w.w.8.b.g.4.T u.T.JX$.U.D 5.JXX.sXsXaXo.fXnXe ;.HX{ : o.^ Y D I ",
"Q G { 0 I H l.-.X.y E L y.7 :. .1 @ mXA 9 J { kXO._ NX:.r { r W K U.T { JXr sXGXHX-.R.Y.X.1 ;.vX%.9.iXpXQ s.[ >.q.e.HXz.8 < y r ",
"N.3 kXy.H K ,.5.{ pXo V.e >.aXH W ^ >.-.mX{ , 4 { P ..hX>.w.zXk.mX~ K JXe.Y.aX5 [ +.pX8.hXGXl.NXlXw.4 U.o.Y D P.4 b.+.{ MXcXpXE ",
"u | { W U L D < u.u.7.v.y.,.{ # aXR E ~ s.w.w.sX8.9 G w.z.E , -.ZXy.u U < [ lXU.NX} U u.N.kX..p.MXX.p.P s.T.L sXv.gXlXq >.+.;.5.",
"%.O...;., J 7 D : < 6 :., y.#. .7 aXO.K I KX5 HX9 @.DXu.y p.l AXZXCX( g.jX*.e.l.T.l.] d.X.A O.v.| a.p.y.GXv.E M.bXT ..I U y U.v.",
"6 ( 4 : +.G Y I bXD y.J I 2.3 ~ 5 ..-.D o.L a.G 2.mXhX+.,.k %.X.f.* CX>.8.l.H | a.JXU s.cXy 7.GXq.| T.v.m.M.: v.b.w sX< 3.HXq.pX",
"` T 3.X.7 F { t Q H fXiXE w.7 +.L GX_ 3 U JXT ..5...P.G Y & j.Q q w.s h L ,.5 1 O.pXo.3 aXaXP xX@.p.P l.zX..1.( Q X.> MX{ HXsXU.",
"[ 8.@.P w.r. .L g.h.aXGXS r DXn.N.Q GX_.T P h.V...-...* & U 1.E q.K H & SX;., t KX .Q M.HX+.R E &. .aXw.~ 5 s.8.GXQ L X.&.3.u.iX",
"2...y a.9  .G K +.a.v.5 D Q T.O.w L L i.4  .w c.&.kX%.k s iX| i 6.q >.{ j * ..6 0.1 k.mX| D R 9.G ~ H 3 > N.KX8.O.a.E Y | cXPXlX",
", ;.H { b.A y.P hX< +.{ xXh.6.i.iXg.h.y R 8 W Y ..AXh kX+.xXcX[ E h.GXR.Y lXCXE r 4.pXGXW nXy.0 FXlXI b.D hX0.Q nXp.| H 1.NXNXP.",
" ./ L 7 X.$ W : u q [ P k.8.! 8.o # 5.iX>.E 9 S CX_.h g.p _ w iXF &.FXFXw.( = AXX.X.4.y.p W lX>.! i.w iX) g.( v.7 e.T ~ R @ < pX",
"8 bXD P >. .e +.< P 9 > L W m.>.$ p.7 J ! F ~ > = * N.Q U D < _ >.KXK 5 ~ t.8 = h 5 H ,.R R 2.q < 8.2.y.mXxXxXE 4 2.w.<.9 U PXs.",
"y.;.R D i.A k.! 5 1 ..3 GXA *./ { ] >.n.! 6.AX= P P q P H FXw.R.L R R KXD i # S & AXP MXw.y  .lX6.%.{ n.DXA aXGX+.< 3 y.GX$.vXU ",
"^ GXp [ a...# , F ;.@ o : v.O.HX| H 7 A 8 0 k & ..t.G R R 2.w ! U P.pXQ < K V.6 6.l CXL 7. .0.7 o { HXu.L MX4 T @.7 nX/ 4.y.i 9 ",
"q N.{ H 2.4 G # V.0 r n.Q H w.o S >.>.9.ZX= * 5 U T iX4.! mXJ a.# m.h.< S 9 < cX_ 8 c.CX_ W Y 8.N.B.O.2.R J s.P jX<.A +.< A T 2.",
"Q +.6 8 R  .P , G @ 6 D : 9 zX1 p.7 p.SXj l O.! ;.P.U.HX7.lXA v.{  .P X.| G KXmXw.JX1 = k a.KXJ iXlX| r B.W I.;.N.z.GXIXh.m.W < ",
"F ~ t u w.e 4 t : pXiX8.k.P I G ~ y.;.; h ! N.P.aXJ <.o.-.G 7 y O.T M.KXkXGXl.aXr.N.S Y & 3.2.9 ! | bX{ Y $.{ :.l.lXP R S ' ~ 9.",
"7 P 9 zX9 L < T 3.,.e.Y +.M.5.Q 7.SX; ;.{ ..A { pXGXn.R.HX .~ A hX7.GX+.hXu.3 H P b.D :.m.* * mXt.~ 7 ( : 7 P P jXKX{ xX%.8.u.cX",
", -.2 4.O.N.X.NXp -.hX4 d.J Q -.i 9 = w.v.w y 2 X.iX, _ u.b.6 h.w.i.6 U : 4.R _ 9 P D J n.L 0 ; ZXX.6 K y j.8.H D L 2 _ Q ..2.,.",
"9 < | 7 w.+.L : z._ b.mX+.NXHXY x.& o.4 P mX8.+.( IXU.b.{ 3 R u. .W e bXJX4 / fXk.w.V.-.xXK 8.= t.l.@.Y i.iXM.@ s.9.X.8 O.8 pXs.",
"A D y *.8 A f.: -.y V.A S E O.f.t 3 L # mXgXd.t | 7 xXb.;.] J kX8 PXW Y b.7 R.r.m.bX) FXd.p z.D = k 6 &.U T.GXlX4 b.pXmXs.m.o.I ",
"A @ A 2.8 1.E.).)..X.X(.(.+X(.E././.|.+X-X6X9X0XqXuXuXuXuXuXqXqXeX8X2X2X,X6X6X6X-XdX_._._.dX-X2X;XN Z  X`.~.~.|.].{.b.H IXJ nXw ",
"A X.! 1 D 7 E.Q./.(.$X(.-X$X- W.].{..X#X1X0X$X,X0XqXqX6XqXqXrXuXtXeXrX7XqX#X4X,X,X2X5X5X8X;XW.W. X|.x s |.~.'.~.~.B B zXY.E IX .",
"N.9 Y O.R Y W.E./.~.E.W.E./.~ < =X@X.X/.+X+X+X6X-X@X6X6XqXqXqXuXuX,X7X7X2XeXwX7X,X X;X2X#X<X;X>X&X<XJ 7. X.XXX!.[.D.!. .Q vX( iX",
"8 ^ D ..8 w Q././././././..X]..X=X-X-X,X1X;X;X,X7X;X2XqXtXrXqXqX#X'.6XuXtXtXtXqX4XeX2XwXwX,X>X|.*X4X>X;X1X'.{.%X@X|. X< iX5.e.PX",
"# 9 ( 7 v.H E.$X-X$X=X@X=X@X;X1X1X2X7X;X=X}.:X2X2XrXqXwXrXtXuXuXuXqXrXtXBXuXtXBX5X5X2X:X:X2X;XeX3X=XXX-X1X<X1X;X1X=X/.H >.h.M.Y ",
"w ! # 2.>.~ +X+X$X+X.X/..X.X$X+X!..X-X0X0XBXuXqX8XrXtXqXtXrXtXBXBXBXLXLXLXBX+X7X7X,X2X2X2X;X2X1X2X1X;X1X=X=X=X+X=X-X+X>.w 2.,.O.",
"o 9 P I  .4 /./.^..X$X$X.XXX.X&X%X=X@X;X1X,X-X,X;X2XeX6X2X#X<XtXtXqXwXwX,XwX>XuXyX2X>X<X2X4X>X#X;X:X>X;X&X|.XX|.=X+X/.P | | o p ",
"5 < l.O.Y f./.(.(..X^..X.X=XXXW. X;X,X;X@X;X2X2X@X;X2X1X6X2XrXwXwXwXtXrXwXrX7X#XOXeXeX2X2X:X XOX>X>X4X2X4X;X;X].`..X.Xy.< U.i.HX",
"3 > O.D T *.W./.(.(.|.!.^.|.[..X@X;X;X>X2X2X,X2X7X,X2XeXeXtXyXyXyXtXwXyXrXtXyXyXeX2X>X>XeX4X>X>X:X*XOX*X*XXX;X'.'.[.XXo.a.k.d.T.",
"I 2.# R 9 6 /..X.X$X=X.XQ.}.%X%X1X>X&X|. XOX;XOX;XeXeX7X,X'.'.OXOXqXwXyXrXyXwX#X#XOX2X#X X#XtX2X>XXXXX`.&X;XW.oX XXXV 8 +.v...;.",
"6.*.T.Q 1 h.|.Q.Q.{..X=Xa     ;XXX*X@X>X     X:XeX    #X2X2XtX6X#X#XOXeXeXrXyX  yX4XeX    a :X>X<X>X;X;X  .X~.    O .X5.Q $.lXA ",
"G $ 2.e $ : !.    !.{..X  ~..XX =X@X*X  >X>X  4X  wXrX  uXqXeX5XeXeXyXyX#X.     >X2X  #X#X  ;XXX:X2X2X    @Xa L.XX   X9 O.I -.4 ",
"p G z.~ q q W./.a XX.XD.].- !.XX;X  ].  #XXX  '.  '.#X  tX+X6XwXwXwXeXyXwXyXyX  #X4X  rX- yXyX- ,X7XO XX  XX  XX`.F.z y 9 / o.Y.",
"f.6.<.y.d.t.~.|.a |.~.d   ~.g % |.XXoX  OX*X  2X  #XXX  2X4XwXwXwXyXrX>X1X4X;X  ,X&X  ,X2X  OX>X*X:Xg ;X   X   X`.F.- 4.8 :.f.mX",
": # F y w.h.~./.a M W.z M ].].  |.[.[.  ;X>X  OX  OX#X  '.'.'.c g z >X>X4X5X6X  <X#X  '.~.  ~./.~.            F.`.Q.c r $.X.I PX",
"7 | ! S : zXf W.- M b N X Q.!.X Q.`.`.  |. X  XX  ~.XX  +X'.C '.'.'. X#X,X;X;X  ;X*X  4X>X  2X1X@X X'.`.  C d ~.K.  G.Q NX4.KXnX",
"@ A # GX$.M.N C - ~.~.B -     ~.!.  |.|.    |.+XXX    XX X;X X X+X-X@X@X#XXX;X  1X@X;X    2X7X- m /.|.OX  XX X    - V o.sX< P [ ",
"7 K > f.N., ~.|..X!.|.|.].}.XX^.XX%XXX%X%XXX;X;X&X+XXX;X#X#XOXOX X#XOXOX;X@XXX;X#X X[.XXXX;XOXoXOX X X X X`.~.V V C F.9 p 5 L P ",
"R g.o.+.w , ^./.].`.|.].].!.].{.%XXXoX*X&X&X&X}.{.XX&XOXXXXXoXOX#X`.'. XOX:XOXoXoXOXoX X X`.K.`.`.K.C V V ].L.K.K.V Q.J gXJX^ / ",
"R L +.E w.2.D.!.Q.F.!.~.F.{.XX}.L.}.}.&XoX*XOX}.OX[.[.OXOX*X4X5X4X4X4X#XoX[.:X:X*X:X>X:X;XOX[.`.K.'.[.K.'.].].XXN gXb.T ;.U 6 MX",
"e.P 9.U s.G b B ~.D.F.G.!.K.F.C H.K.}.K.K.F.F.`.K.L.L.].'.[.'.L.[.K.oX[.*XoXL. XoX&XoX4X*XL.oXK.[.[.K.F.[.m !.F.V C v sX8.sX{ T ",
"0.$.y.b.G xXE.~.C S.~.}.@XW.O D.L.H.{.. [.  . . . >X*X2X      *X4X:X. . . >X>X*XH.*XoX+ + oXK.. . [.&X}.oX}.L.].].`.F.Q o.0 R.2.",
"m.7.S  .3 3 A.!.D.W.Q.!.{.G.L.  {.L.{.O ].O }.OX&XoX}.  `.F.].  OXoXg L.L.  &X*X}.*Xz . *X*X*X    L.oX}.}.H.`.H. X!.F.R e.+.4.a.",
"E , 3 Q d.+.D./.Q.!.].].H.V G.  H.F.  ].OXO oXoXL.%Xc Z.OX&X;Xc x :Xx ;XoXd K.}.m v   }.!.V m + O ~.F.K.F.C H.H.F.C B b.y { 5.E ",
"O.7 ..9 H , Z.B Q.N M m G.H.D.G.  D.  `.G.      . L.  ]. X{.[.[.  XXa c x   }.*XZ.  }.L.}.L.. }.K.. }.{.].~.G.F.D.C C Q / L P JX",
"~ G / @ i.iXc c ~.B m !.K.z D.B   m Z.F.}.X }.%Xd z O &XoXOX&XoX+ XXx oXXXoX&XL.  }.  C K.L.        L.V ].].`.~.(.(.^.i 8.HXK S ",
"L 8 3 3 E W E.Q.Q.^.^.(.(.Q.(..X{.  %X$X.XO .X{.D.X {.O [.}.!.O {.XXz K.K.L.XXH.H.[.^.  `.`.+ F.F.. !.~.!.(.].^.].H.Q.T.s.$ 5 ~ ",
"P X.i.%.E 0 E.Q.B E.Z.Q.A.!.!.O + - Q.D.F.        ].`..   ~.  X H.C g C K.H.`.].Z.~.}.  `.  }.`.{..X  !.!.!.Q.!.W.Q.D. .M.{ #.4.",
"F > > t &.3 c Z.B M D.Q.Q.!.^.(.^.{.H.J.{.D.J.!.F.H.N !.W.!.^.G.H.D.G.].H.].].!.F.H.].D.G.F.V m C C C ~.D.B D.D.D.D.A.+.vX] P.+.",
"R fXq. .8.4 N n Z.c W.B G.D.D.G.b G.^..X^.D.F.!.H.K.C C D.W.H.D.!.K.!.].].|.{.].`.V C `.!.].|.^.!.!.].F.G.!.!.~.D.B g [ { $.H [ ",
"..:.) R N.1 A.E.N Z.N G.Q.D.N A.M G.Q.D.^.^.D.!.!.H.G.D.!.].J.K.{.H.H.D.D.G.H.F.H.H.S.].D.S.].`.!..X`.M D.Q.F.D.B N =.C.A U b.s.",
"{ D D ~ 5.+.A.A.B A.A.G.A.Z.G.Q.!.D.G.G.H.H.^.!.].].J.].].].^.K.!.^.].H.H.!.G.F.H.`.H.F.V M M b M N D.m C D.Q.B N B n u.A ..u.v.",
"S L 7 7 p.` n N Z.E.Z.B A.c D.A.Z.D.G.G.G.D.S.v n D.G.B B m m m m B S.D.!.H.D.v D.^.S.].G.H.~.!.].].H.^.D.!.!.D.M m n Q ` NXo.w.",
"p.| U E ! w.N N N E.E.Q.A.G.A.^.A.G.Q.^.G.H.^.^.^.^.D.D.^.^.D.G.!.!.].H.^.H.^.J.].`.!.G.H.L.D.S.M C D.Z.C m m Z.D.B n #...u pXu ",
", L 0 > :.fXb N G.c A.D.^.m n ^.D.M Z.M Z.G.G.!.H.].^.H.H.J.K.`.].{.J.H.v S.S..X}.!.v G.m F.F.C W.C M C F.M m V M v c 5 I k.9.` ",
"M.D r W A ~ N E.N Z.Z.N E.N n Z.W.Q.Q.Q.Q.^.D.G.G.D.D.D.S.V D.C F.G.V V D.m D.S.D.D.S.S.m B Z.M n D.M v B B M M M N x <.8.J | *.",
"4 U S ~ ~ < S ! o.| y @ sX$.zXp.A D b.E ! 3 u p.JX..w i.2.6.p kX, sXNXw r ..5.} +.y @ 5 dXGX%.+.{ T / o R.0 kXe.MX .@ s.hXe.u K ",
"$.< L F < D ~ ] o L W y.zXi 8.0 D W w.y.7 # 0 B.~ 7 4 5 ^ b.<.> 9 X.< R.+.X.] ~ sXo.1 e.y +.-.~ 7.3.sXE 2.6 L R.Y.sXI { U k.> ..",
"G o H 3 T W W ~ G ..W c.A y.7 R Q Q w Y U G t.g.t.@.gX;.GXH ` 0.u.bX0.q zXp _ d.JX .{ 5 J v.o.8 { ( d.4 3.{ < dXR | @ pX| *.: 9 ",
"3 9 # q &.a.R ;.O.-.U : R 9 X.1 :.r.q U f.A :.kX! 8.L 3  .q 5 # 8.[ _ ..u.E 9 hX8 P > P z.$ p VXY D 7 aXNXbXjXo.5.{ K nX{ ' y.K ",
"H q 7 S 1 H ..y 4.5 9 o A P # L %.&.y.FX{ A X.i.# p HXU q s.7 ' I HX1 b.,.pXX.S ` u.P.Y.jXsXMX5.U.a.K 8.$.;.>.X.} w.{ @.nX#.A 5 ",
";.W t ~ Q m.G gXq { 3 3 P r 7 8 xX@ A S D Q @ K ..{ : 2.8.y.Y R W # D B.b.a.NX4.I zX4.$.kXM.2 7 Q P jXq pXb.t ..P > ;. .lX' s.Q "
};
