/* XPM */
static char *ea814dec113f46f9def48873acfd25a3pVVb8tF88kYifXKJ[] = {
/* columns rows colors chars-per-pixel */
"64 64 256 2 ",
"   c #061804",
".  c #3A0B04",
"X  c #32130C",
"o  c #052A04",
"O  c #073806",
"+  c #13380E",
"@  c #362021",
"#  c #3D2B2B",
"$  c #3E2C31",
"%  c #450B05",
"&  c #46130A",
"*  c #4F130E",
"=  c #561608",
"-  c #731309",
";  c #592719",
":  c #722910",
">  c #4B1E2E",
",  c #462B2B",
"<  c #552B2A",
"1  c #4F3131",
"2  c #563534",
"3  c #70332D",
"4  c #653A37",
"5  c #074804",
"6  c #144807",
"7  c #085806",
"8  c #16590A",
"9  c #155A14",
"0  c #086908",
"q  c #16690A",
"w  c #087704",
"e  c #177907",
"r  c #186C13",
"t  c #1A7714",
"y  c #27780B",
"u  c #256918",
"i  c #26771A",
"p  c #307413",
"a  c #2B5C22",
"s  c #317228",
"d  c #6B433B",
"f  c #75473D",
"g  c #4B612C",
"h  c #633D41",
"j  c #1A6E6D",
"k  c #04777B",
"l  c #287370",
"z  c #764F48",
"x  c #5C5960",
"c  c #8F0D07",
"v  c #A70708",
"b  c #B90606",
"n  c #8F2D0A",
"m  c #A9360F",
"M  c #8C382C",
"N  c #AB2027",
"B  c #C90305",
"V  c #D80707",
"C  c #D11113",
"Z  c #EC0201",
"A  c #E80809",
"S  c #F40201",
"D  c #FD0101",
"F  c #F90708",
"G  c #F30F0D",
"H  c #E71517",
"J  c #F71816",
"K  c #D12611",
"L  c #EC2E0F",
"P  c #FC2718",
"I  c #CF1F27",
"U  c #ED1C21",
"Y  c #D52F2D",
"T  c #F02E2D",
"R  c #AF4716",
"E  c #A2561A",
"W  c #904A36",
"Q  c #AE4F2F",
"!  c #AD6B34",
"~  c #C85017",
"^  c #C85828",
"/  c #CF5632",
"(  c #F14835",
")  c #D86B34",
"_  c #E76123",
"`  c #9B3F42",
"'  c #E63947",
"]  c #8F5346",
"[  c #A05958",
"{  c #AE704D",
"}  c #B67172",
"|  c #D5524A",
" . c #F04C50",
".. c #CE6D50",
"X. c #EB6D4E",
"o. c #E45B66",
"O. c #DA786F",
"+. c #F36C6A",
"@. c #0A8606",
"#. c #188709",
"$. c #128D0C",
"%. c #1A9507",
"&. c #268909",
"*. c #358B0B",
"=. c #289709",
"-. c #349A0A",
";. c #288715",
":. c #358918",
">. c #2B9615",
",. c #389A17",
"<. c #1AA006",
"1. c #2BA307",
"2. c #38A507",
"3. c #34AC0E",
"4. c #3AA517",
"5. c #37892A",
"6. c #389626",
"7. c #3CA528",
"8. c #479510",
"9. c #47981A",
"0. c #45AA0A",
"q. c #54AF0A",
"w. c #49B408",
"e. c #55BA08",
"r. c #47A817",
"t. c #55AA19",
"y. c #49B316",
"u. c #55B716",
"i. c #69B90E",
"p. c #63BB17",
"a. c #4A9827",
"s. c #4E9033",
"d. c #699B22",
"f. c #48A726",
"g. c #56A929",
"h. c #57B729",
"j. c #51AD33",
"k. c #58B638",
"l. c #69B42C",
"z. c #67BA38",
"x. c #5BC210",
"c. c #66C60A",
"v. c #66C617",
"b. c #76D010",
"n. c #5DC230",
"m. c #68C428",
"M. c #74C929",
"N. c #6AC438",
"B. c #75CA38",
"V. c #78D430",
"C. c #5AB245",
"Z. c #6FB24D",
"A. c #68B94A",
"S. c #62A25A",
"D. c #6BC445",
"F. c #76CA45",
"G. c #65C150",
"H. c #77CD50",
"J. c #78CA57",
"K. c #E79522",
"L. c #F1B42F",
"P. c #86D713",
"I. c #87D732",
"U. c #95E731",
"Y. c #A0EB36",
"T. c #F9C82E",
"R. c #A2A16A",
"E. c #D0904F",
"W. c #ED8C54",
"Q. c #D6A64E",
"!. c #F2B350",
"~. c #D48B6F",
"^. c #F08E73",
"/. c #CFAE6E",
"(. c #F2B26E",
"). c #88D948",
"_. c #8BD150",
"`. c #88D558",
"'. c #AACC4A",
"]. c #98E44E",
"[. c #A4E952",
"{. c #8CD46B",
"}. c #98DA76",
"|. c #A7D875",
" X c #8FE668",
".X c #97E668",
"XX c #9AE575",
"oX c #A6E969",
"OX c #A7EA76",
"+X c #B1F373",
"@X c #FCCA51",
"#X c #D5D86F",
"$X c #FCCA67",
"%X c #F3CD6F",
"&X c #FCD667",
"*X c #FED46B",
"=X c #FED374",
"-X c #FDD878",
";X c #FCE768",
":X c #FCE679",
">X c #17529E",
",X c #037784",
"<X c #197084",
"1X c #0247AE",
"2X c #246BA0",
"3X c #FA7886",
"4X c #398A8D",
"5X c #588F85",
"6X c #AE938B",
"7X c #BFA2A0",
"8X c #D6968E",
"9X c #F0918D",
"0X c #D3AF8D",
"qX c #F1AC93",
"wX c #F89BA4",
"eX c #CDB6B1",
"rX c #F3B3AE",
"tX c #AFDD95",
"yX c #9BE78B",
"uX c #A8EA87",
"iX c #B5F28E",
"pX c #FBDA87",
"aX c #F2D292",
"sX c #C9F393",
"dX c #FDE688",
"fX c #FCE998",
"gX c #F4D1AF",
"hX c #D1E0AC",
"jX c #FCEAA8",
"kX c #FAEFB1",
"lX c #FCE9B7",
"zX c #CEC8C8",
"xX c #DFDEDD",
"cX c #F2CBCD",
"vX c #F6D4C9",
"bX c #E8DCD8",
"nX c #F7D9D7",
"mX c #EDE9CF",
"MX c #FAEAC8",
"NX c #F7E9D8",
"BX c #FAF3DA",
"VX c #EBE8E5",
"CX c #F8ECE6",
"ZX c #F4EEEB",
"AX c #EBF4EA",
"SX c #FBF4E4",
"DX c #F4F3ED",
"FX c #FAF4EC",
"GX c #F4F8EA",
"HX c #F9EDF5",
"JX c #EBF9F7",
"KX c #F4F4F3",
"LX c #FBF4F3",
"PX c #F4F9F3",
"IX c #F6F7F9",
"UX c #FBF4FA",
/* pixels */
" Xf. XH.%.g.4.i %.:. X}.0.#.B.8 2.*.h.w.=.1.>.0 n. X$.M.>.,.0 C.n.I.V.v.Z.H.OX-.I.9.a.A.g.>.q @.j.h.s.0.A.Y.;.e.>.l.B.j.@.m.{.F.",
"j.w 7 5.4.&.s.].6.F.m.,.k.J.XXg.&.M.l.#.#.i y.F.%.7.j.k.v.$.@.%.m.u.=.OX).iXb.oXg.P.yXa.).9.`.sXj.f.l.D.`.:.;.b.OXD.uX>.y.y j.;.",
"0.0 y.s hX;.0 =.yX&.#.N.%.t r.t   XX=.4.N.D.i &.3.S. XV.w.#.j.-.e U.7 &.sXl.8.z.;.M.I.P.sXu.8 g.}.g.i.[.).C.P.y {.`.].8.uXiXq 0 ",
"`.N.2.&.k.r.%.D.Z.q q ;.P.9 4.%.;.y.h.XX1.4.u ,.w.2.@.V.XXi.{.H.XX,.p ).P.9.>.{.a.u A.c.*..XyXZ.[.F.I.}.uXP.A.&.).-.=.*.B.&.oXXX",
"2.=.y.t f.0 0..X=.0.9._.r.-.5 `.>.;.v.a.A.6 M.-.5 7 w k.5.{.7 3.s p.w >.&.I.Z.&._.i O G.XX).}.w.m.].h.D.x.p.0.m.0 OX0.oX}.e m.u.",
"x.N.w e y w 4.%.{.6 #.O D.l.2.w `.-.u.c.J.e b.=.#.j.J.h.yXJ.%.m.7 e j.yXi.{.P.}.l.oX|.q.h.r.=.y.H.=.XXe D.{.b.e u.>.I.Z.v.N.r.u ",
"q + N.$.%.&.  /. .wX^.9X9XqX~.8XR._.s.{.j.k.7 *.4.r 2.r.J.b.e 3.k.3.sX2.2.iX-.b.F.v.}.v.A.XXa.v.iXU.x.)..X=.G.0 5 e Z.e 2.w k.tX",
"g.2.@.$.%./ J D Z D D S D D D A D D D D D D D D S D D D D D F U | 8XwXnXcXrXrX8X8X0XtX_.G.hXOX=.uXy XX7 iX_.;.-.e c.`.u.s.+Xw.iX",
"p.4.e.c.P P G D S S D D D D D D D D D D D D D D D D D D D D D D D D D D D D D D D D D D D D F F G D D D D D D D F F +.c.=.k.s.k.",
"q z.>.N.P P G D S S S D S D D D D D D D D D D D F A D F D D D D D D D D D D D D D D D D D D D D D D D D D D D D D D D v.2.e e.}.",
"&.u.`.%.P gXJ D D S S S S D D D D D D D D D D G HXIXnXnXG FXrXD 9X+.D H F  .D G D F T F D D D D D D D D D D D D D D D w x.6.h..X",
"=.w t   P KX..D S S S S D S D D D D D D D D D JXKXIXIXD HXA H rXJXo.I CXIXS LXJXIXqXwXF D D D D D D D D D D D D D D D M.i 0.>.o ",
"#.#.x.y.T N cXD S S S S S F D D F F D D D D D K PXUXPXD 9XU H vXJXJXS UXUXD UXJXDXcXD D D D D D D D D D D D D D D D D OXw.0 0 >.",
">.$.l.,.P P gXD D Z S S S Z F H T F F F D F D S cXUXJ D S G T S  .T T 9XU IXF JXD nXD D D D D D D D D D D D D D D D D #.w i.uXv.",
"s f.M.i.P P o.D D Z S S S A HXKXKXKXIXrXUXFXc S S D D D D D S D F F D F D D D D D S D D D D D D D nXD D D D D D D D D %.].{.M.p.",
"w.;.y 7 P Y qXD D Z Z Z S HXKXG X N JX' bXKX& D D D D D D D D D F D D D D D D D D D G UXLXIXUXo.vXUXV D D D D D D D D j.4.h.7 #.",
"0 0 @.7 ( HXcXD S S Z Z F KXHX. F D wXJXcXIXLXUXO.F o.PXLXH D F T CXH D F bXnXD D D D ' UXv I UXC o.= D F D D S D D D r.D.+X7.A.",
"p s c.b.( n U D S Z Z S Y KXHX- S S F Y zXPXH IXHXC LXA wXUXb  .UX+.HXI IX .nXPXS D D T UXb F UXZXLXU HXPXLXH cXF F l uX-.n.$.r.",
"w .X;.2. .GXT nXS Z Z S Y KXKX- S S S Z rXKXX HXLXFXUX% S PXJXUXnXC JX+.UX% S PXIX+.UXU UXHXUXUX= UXT IX; UXIXD C ,X,Xq 6.yX>.c.",
"8 B.k.u.T CXT MXS Z Z V Z UXHX- D Z D ..rXKX% UXLXLXHX- D JXJXPXJXF D cXUX& S FXHX} ZXc UXV C = S IX' UX3XwXwXj ,Xk ,X{.f.J.*.e.",
"0.0 F.,. .rXY BXS Z Z Z Z KXHXIXZ D HXCXeXIX% UXHXz PXN D IXPXIXHXb F rXPXo.S JXUXb b F LXC D D D UX .JX} k <Xk k ,XDX.Xm.0 4.0 ",
"t s.w @.( P J ( D Z Z Z Z S JXKXKXKXHXF UXUX[ UXAX3 IXPXIXIXb D IXUXJXU SXPXrXKXF S F cXUXCXD D 9XIXIXnXKXCXwXj HXHXR.].B.OXN.G.",
"@.9.8 j.( JXU CXD Z Z Z Z S Z V 9XC c B - % v v - V A c A % D D A A V = D C A c C D F D c b - F x = - % - B * LX& . . %.B.7.sXi ",
"3.6 &.r | ' J F S Z Z Z Z S S S Z S S D D S S D S D S D D D D D F D D D D D D D D D D S S z k k k k ,XAXSX6X. . . ; BXG.N.iXI.r.",
"6.2.3.O | DXT AXF Z Z Z S Z Z S S S S S S S D D S D D D D D D D D D D D D D D D D C l ,X,X,X,Xk VXCXlX$XL.d [ PXDXCXLXhXN.m.-.{.",
"&.u.0 J.( J U xXS Z Z Z Z S S S S S S S S S D S S D S D D D D D D D D D S ` <X,X,Xk ,X4XxXLXeX& pXaXfX@X@XaXBXSXz nXPXZ.C.0 ).z.",
"6.w C.5 | T T ( F 9XH A Z Z Z S S S S S Z S Z S S D S D S A I h j ,Xk k k 4XxXDXSXeXX % . & zX@X:XqXaX!.K.-X(.vX` bXBX#.j.t l.A.",
"O 4.j.0.| HXL rXF KXAXKXeX< & * 6XzXAXAXJXAXAXVXVXAXDXDXAXSXDXLXCXeXh . . % . d NXFXLXFXPXPX%XK.-XkXlX@XL.aXzXbX} [ fX`.{.6.6.h.",
"=.y.h.7 | C T SXD DXKXKXKXKXKXKXKXKXPXLXJXLXB V Y HXFXFXFXFXUXSXLXbXLXDXLXLXLXPXLXFXPXLXGXDXT.T.dXmXjX@XIX} ` c NXGX;X#.`.=.e.w.",
"s.n.7 a X.T J UXD KXZXKXKXHXLXKXHXKXFX^._ V B V A UXKXKXJXcXm / X.~.rXQ nXKXPXFXFXFXFXFXFXBXL.T.pXgX% NXAXJXSXIX< ! :Xe XX X0 M.",
"w.$.`.o | HX( G D JXDXZXKXAXPX) ^.(.L C S A B B A IXJXDXn R n _ qXqXbXqXm vXSXFXFXPXFXKXSXSXKXbXpXeXDXFX7X} & : ;X;XkX7.@.y r.z.",
"5 ,.;.>.| O.F vXD K / A V G S H rXP ^.A G | V B A zXCXm ) ^ ) W.^ qXrXvX) n FXFXFXSXSXSXSXn ; LXVXPXPXPXKXE.NXQ.;XBXjXC.w #.e.D.",
"U.y.9 j.o.K rX3XF b b A V ZXA 9XP _ _ JXVXHXVXC 5X6Xn m ) ~ m X.W.X.^.nXm - CXCXBXBXBX! R nXm JXz UX[ KXL.pXSXaXBX:X:X6.H.l.2.u.",
"k.9 O + ..UXvXcXD B v N c A o.X.VX~ vXgXA IXzXS.S.) qXm m ) m m n qXcX~.^ % . gXd E.nX9XrXZX0XZX< MX= & L.aXmXaX;XkXdX6.|.-.y.=.",
"A.4.i 8 O.U cXG D 3Xc nXrX7XJ eXX.JXn C !.5X4XGXQ Q : n m n W.) ^.~.: qX~ = X % gXQ mXvXrX: HX% -XE.lX@XK.lXxX2XBX:X;X0 s.{.e :.",
"A.M.V.>...Y vXF D O.3 } VXAX[ _ ) ! ; aX{ cXn : n R ) ..) ~ ) R n ) ~ ;X(.% = . Q rXnXgX..vXm W.W.lXjX!.L.gX1X1X@X;XdXV.uXN.7 y.",
"<.:.V.h...T  .D D A N I V L _ /.E E : :X[ mX; m n - W.~ n ~ ^ ~ X.=XlXBXpX- c % - ^.n qXX.gXqXrXm qX1X1X2XMX1X1X[ -X:X7.s f.b.l.",
"3.$.0 5.O.UXKXD D V B b Z L rX~.M E : 3 lXgX= ^ | ^.R n ^ m W._ pXjXdX!.NXGX{ = n ..^.Q qX^ ^.NXX.^.1X1X>XjX1Xx ;XdX-Xf.&.p.+Xl.",
"o yXy 5.O.wX| D D A B b C 5XaXjXlXlXjXX & ; = n = R m n _ n m -XMXBXQ SXAXVXQ ~ % c n / gXX.n ^.R W.) >X> /.;X&X:X:X-Xe.M.f.I.0 ",
"O s.A.u O.CXF D F V [ 4 eXJXVXSXZXAXGX! X % = % n : m R n m MXlXfXK.FXZXKXL.@X&X. qXgXgXM gX| ~ ~.m R n c E :X&X-X%X-X].q.q 6 q ",
"u.y.a.o 9X| U F D KXVXbXxXCXW dXQ.fXmX! ; . = = | : M ^ _ jXfXvX) SXZXCXlXaXlXQ = m : nXn rXc ) ^ ) - : - - *X*X&X-X&X7 t.&.).sX",
"p.-.P. XO.O.G S D ZXCXbXbXVXDXDXFXHXHXVX4 . M % : : : n pXjXjX(.FXSXNXdX-XdX&   & 0X3 Q M ~ (.Q n Q ~ - ~ n *X&X&X&X&X].z.:.j.2.",
"b.2.A.$.O. .T D D DXZXVXbXVXDXZXFXKXKXVXX . . M = : : $XMXNX) CXCXNXlXMXgXX X X ; M M R { Q M / ..: M * ^ : *X$X&X&X*X2.*.oXq.`.",
"m.{.1.5 3X| J D D NXZXCXxXbXVXVXVXbX/.K.& X . & * : m jX=X!.CXSXZX&XlX(.@ @ X @ 3 ^.~.Q ..| W.) ` Q : : ; ; *X*X&X&X&X#.4.2.r.0 ",
"@.0.w 0 8X6X( D D gXAXVXxXAXaXL.!.%XjXNX; X @ . & : lX;X-XSXCXZXgXdXdX; X # , > < M ~.W 3 ^...` : 3 ; +.< ; *X$X*X&X&Xs.#.*.i.y.",
"0 3.=.1.8XPXqXJ D %XAXZXVX%XaXMXBXBXMXkX0X; @ ; > Q NXmX(.HXHX$X&X(.Q.] , # # < < ] Q M ` Q W M < < ^.2 3 $X=X=X*X&X:X:.w.B.e w.",
"e.0 $.8 8XeXlX( F fXmXaXjXNXBXMXkXkXkXjXSX4 < , 1 %XMXW.HXKXQ.pXBX] ] W , # , 1 < 4 3 2 4 3 3 1 < Q , , M &X=X-X-X-X-X}.Y.u.p ;.",
":.  M.D.rXeXNXgXJ BXMXlXjXfXjXkXkXlXLXKXLXSX2 < 1 $XW.CXKXbXlXgXW z W f 1 # 1 1 < 1 1 < < < 1 > 1 < , Q Q.&X=X=X-X=X=Xu u.9 b.uX",
"0 w >.1.8XZXMXMX .:X:XfXjXjXjXBXLXLXLXGXFXSXBXz 1 W M AXAXgXpX(.d d d d h $ $ 1 1 2 4 2 1 , , , , , M 4 ) !.$X=X=X=X=X0 @.l.l.+ ",
"b.k.#.u 8XgXeXvX+.fXfXpXjXFXGXFXPXFXSXSXSXSXBXkXd , 1 z / &XjXh 4 4 z d d 2 1 , 1 1 $ # # # # , , 2 1 4 ! !.$X=X=X=X-Xw.-.e.J.0.",
"+ 6 s <.6XMXbXgX+.;XMXsXxXUXHXFXBXSXSXBXBXjXfXjXfX4 < 1 X.fXW f z f z z z f 2 2 $ $ $ # # # # , 4 1 2 Q W.!.=X*X=X=XpX0.+Xx.|.a.",
"v.e.c.5 0XNXbX9X+.CXaXmXhX#XQ.0XgXE.kXjXfXjXfXdXfXMXMXpXQ.E...{ E...E.E.E.! [ z d 1 1 1 1 2 < 2 f ! Q.@X$X$X=X=X=X=XpXq #.R.p.i.",
"6.#.z.g.R.wXKX+.+.KX|.lXHX{.CX0XE.jXjXjXfXdXdX/.kX0X:XdXQ.:X/.:X-XdXdX:X:XdXaXaX0X0X~.R.~.E.Q.qX%X$X$X=XpX=X*X=X=X-XpXe.b.p e -.",
"#.4.c.b.R.3XIX+. .SXbX{.tXZXjXaXaXfXfXdX:XjXMXlXfXdXdXdXdXdXdXdX:XdXdXfXkXMXSXSXPXGXVXmXjXdXdXtXR.#XI.P.q._.u.U.`.oXl.=.yX9.#.e.",
"@.w N.8.t.R.3X+.+.BXBXkXfXjXjXjXjXdXdXkXlXkXfX-X:X%X#X'.s.;.4.g.+ #.O 5.{.e ,.v.{.s.q k.f.>.5.-.>..Xu.,.o i.0.oXb.g =.2.|.1.t.OX",
"4.N.y.u.%.7 q 5 i e 2.%.Z.1.w.$.u B.{.O h.$.O 5.>.XXv..XB.7 f.+ Z.0.>.w w.+ >.e 4.{.y _.+ 0 p.e w.S.J.h.y.M.I._.;.B.4.  *.d.e.p ",
"0 9 k.h.V.3.O 7 5.c.@.$.D.M.w *.`.O r.w s {.I.n.3.7 c.@.b.w -.s.M.@.g.`.0.5 @.x.B.y.D.6.2.8 =.q Y.sXC.q uXb.l.0 F.e e ,.iX,.&.Z.",
"y 3.%.y.).Z.M.8 c.e F.e.q.x.%.p.u XXs q.e `.f.>.>.1.#.I.#.i 8 S.q 6 0 6 *.s.f.o s z.iXf.5 &.l.:.x.3.J.g.7.{.b.M.v.g -.=.=.9.e.&.",
"@.4.3.7 7 x.4.5 y O ;.9.8..X4.@.#.B.v.u.6 $.>.r.V.;.s.3.B.e.8 J.u iX].6 F.I.XXf.Z.9 D.k.a.F.uXt.m.i y.6._.=.4.e :.-.:.0.{.).[.M.",
">.@.5 o f.o ;.v.q @.I.C.t #.0 &.1.y.u.=.*.c.6.i 6 >.$.O f.J.A.6 0 &.7 v.f.&.OXB.r.s u.s.c.&.u.6.3.r.>. XP.7 a f.t.oX].sX8.w.-.A.",
"#.0 x.y.e.@.>.e 9 x.7 e 9 r j.1.4.k.f.h.%..X6.J.3.b.+XJ.s.#.q c.B.V.e.{.J.a &.z.#.P.e.&.O i u.t.w w.4.;.#.M.w p 8 o $.#.6 oXq.s.",
"o t f.0.,.q w O w 1.6.>.0 q o n.b.5 1.a 7.j.B.  h.5 4.:.=.7 9.o c.y #.7 g.s.u.e 3.=.-.t.2.OXo s.#Xr.w #.9..XOXoX+X+ *.y &.).0.r.",
"w $.t =.2.XX4.3.=.0 7 7 %.#.1.A.a.D.yX>.2.q.[.c.7 b.@.e #.l.e 0.r.yXe iXD.6 F.7 u.t -.U.a.[.oX|.f.b.6.&.3.I.].l.Z.OXr.v.q e.oXt.",
"i w.4.D.-.5 ;.5.w ;.%.#.1.7 5 J.o %.-.j.,.v.2.a.m.M.s V.w.q.>.=.2.o y.0 ;.;.c._.I.8 9 B.k.{.A.u 0 y.A.[.8 ,.sX0.8.2.p o h.9.Z.8."
};
