/* XPM */
static char *_30caca7e2274af7dfd9ab78acb19e6cY2P7kLXb3pNKmmv5[] = {
/* columns rows colors chars-per-pixel */
"64 64 243 2 ",
"   c #050302",
".  c #080804",
"X  c #0A0908",
"o  c #130201",
"O  c #1A0805",
"+  c #041803",
"@  c #171A0E",
"#  c #270201",
"$  c #340300",
"%  c #3B0301",
"&  c #2B190E",
"*  c #072705",
"=  c #022C02",
"-  c #063805",
";  c #143809",
":  c #162C10",
">  c #30281B",
",  c #460200",
"<  c #550100",
"1  c #491802",
"2  c #630200",
"3  c #6D0100",
"4  c #790201",
"5  c #691A05",
"6  c #4E3314",
"7  c #51362B",
"8  c #6F3925",
"9  c #074806",
"0  c #154708",
"q  c #035403",
"w  c #035B03",
"e  c #0B5C03",
"r  c #095508",
"t  c #155A09",
"y  c #0F5412",
"u  c #195915",
"i  c #314D14",
"p  c #255E12",
"a  c #086507",
"s  c #046B03",
"d  c #0C6C0B",
"f  c #166809",
"g  c #037302",
"h  c #0B7303",
"j  c #087707",
"k  c #0B7C0A",
"l  c #177707",
"z  c #137A0B",
"x  c #186812",
"c  c #197714",
"v  c #2E710B",
"b  c #26780B",
"n  c #266918",
"m  c #267719",
"M  c #347C1A",
"N  c #305629",
"B  c #327428",
"V  c #424323",
"C  c #6B4B2B",
"Z  c #49782A",
"A  c #2C335D",
"S  c #744F48",
"D  c #6C6B55",
"F  c #606859",
"G  c #870000",
"H  c #8B0601",
"J  c #950000",
"K  c #A30100",
"L  c #AB0000",
"P  c #B20000",
"I  c #AF1405",
"U  c #E11906",
"Y  c #894D03",
"T  c #935919",
"R  c #B96B00",
"E  c #8D6034",
"W  c #986537",
"Q  c #AB7139",
"!  c #CD7A00",
"~  c #935750",
"^  c #A3735D",
"/  c #896F69",
"(  c #C17F42",
")  c #098606",
"_  c #148C03",
"`  c #188907",
"'  c #14840C",
"]  c #1C830C",
"[  c #099205",
"{  c #1A9407",
"}  c #1A8512",
"|  c #1D9613",
" . c #248809",
".. c #2C8B0C",
"X. c #348B0B",
"o. c #24940A",
"O. c #279808",
"+. c #359A0A",
"@. c #288716",
"#. c #258B12",
"$. c #368A17",
"%. c #2A9615",
"&. c #3B9C13",
"*. c #379818",
"=. c #1AA106",
"-. c #2BA406",
";. c #34A20C",
":. c #39A708",
">. c #38B108",
",. c #3CA313",
"<. c #30A915",
"1. c #39A618",
"2. c #388825",
"3. c #338C2A",
"4. c #399825",
"5. c #2EA12C",
"6. c #3BA627",
"7. c #489410",
"8. c #469819",
"9. c #44A808",
"0. c #42AC0C",
"q. c #4AAC0D",
"w. c #55AC0D",
"e. c #4AB303",
"r. c #47B709",
"t. c #4BB40C",
"y. c #56B908",
"u. c #47A917",
"i. c #56AB17",
"p. c #4BB213",
"a. c #4AB517",
"s. c #56B817",
"d. c #63BB0C",
"f. c #63BB17",
"g. c #71B811",
"h. c #48872A",
"j. c #499927",
"k. c #468A37",
"l. c #489734",
"z. c #569633",
"x. c #6C9134",
"c. c #48A727",
"v. c #57A928",
"b. c #4DB628",
"n. c #56B729",
"m. c #4AA935",
"M. c #56AA37",
"N. c #4EB435",
"B. c #58B737",
"V. c #65BA29",
"C. c #6CAD31",
"Z. c #67BA38",
"A. c #5BC407",
"S. c #5CC317",
"D. c #67C70A",
"F. c #71CF0A",
"G. c #77D507",
"H. c #67C717",
"J. c #73CA16",
"K. c #77D317",
"L. c #5CC231",
"P. c #67C527",
"I. c #75CA29",
"U. c #6ED12B",
"Y. c #79D428",
"T. c #6AC638",
"R. c #75C937",
"E. c #79D539",
"W. c #558E49",
"Q. c #6C9750",
"!. c #58AB44",
"~. c #5AB644",
"^. c #5AA556",
"/. c #68B94A",
"(. c #74B746",
"). c #6DB050",
"_. c #75B266",
"`. c #5BC148",
"'. c #6AC546",
"]. c #75C946",
"[. c #7AD347",
"{. c #6CC653",
"}. c #77CB58",
"|. c #7BD553",
" X c #7BC767",
".X c #82B93A",
"XX c #D88100",
"oX c #86D812",
"OX c #85D729",
"+X c #8FD637",
"@X c #86D938",
"#X c #93E425",
"$X c #95E82D",
"%X c #95AF65",
"&X c #C7867B",
"*X c #87D848",
"=X c #90D64F",
"-X c #82CB55",
";X c #88D859",
":X c #8CE24A",
">X c #97E54B",
",X c #99E558",
"<X c #A4EC42",
"1X c #A5E858",
"2X c #85CA67",
"3X c #91CA6E",
"4X c #89D865",
"5X c #93DB6A",
"6X c #8CDA74",
"7X c #97DA76",
"8X c #A6DA73",
"9X c #8FE569",
"0X c #98E669",
"qX c #9AE575",
"wX c #A7E96A",
"eX c #AFF36F",
"rX c #A6EA77",
"tX c #FECC5F",
"yX c #C7DE71",
"uX c #F476AB",
"iX c #4F9F9B",
"pX c #AFAAA6",
"aX c #FE8791",
"sX c #D3A18D",
"dX c #F1A795",
"fX c #FEB19E",
"gX c #9AD782",
"hX c #A4DA8D",
"jX c #99E689",
"kX c #A8EB89",
"lX c #B6F486",
"zX c #ABEC93",
"xX c #B8F49A",
"cX c #B9F3A9",
"vX c #C7F594",
"bX c #EEC9A2",
"nX c #EED2BA",
"mX c #CBF8AC",
"MX c #FEE3BA",
"NX c #C5C4C2",
"BX c #F9E9CB",
"VX c #FDEED0",
"CX c #FEFEFE",
/* pixels */
"*X3XP.k b.].V.%.y.#.<X'.9.z.n.N.[ d O.N./.4.c.OXX.rX-X(.I.OXY.L.!.s +.%.Y._ 6XU.d %.-.{ r.v.$.9.f T.z e.5X6X$._ @.1.v.| [.6Xc.9X",
"] M.b 0...kX/.rXG.@.2.-X].v.v.n.vX-X&.=Xv.gXoXv.wXG.eX-XkX{ s.J. .k ) g.B.N.5.{ ].u.m ' l P.J.#.v.7X}.Z.1.P.].3.=Xz.b 1.2.w _ m.",
"a f xXzX9.=X4X4X@.oX!.@X1Xg.m.7Xc.0 i.vXoXR.R...Z.8.Z.lX..q $Xl v + ] e.R.9X!.1.o.m '.T.:.O.qX+ c u.c { T.`  .hXO.f b mXZ s.a 0.",
"qX1X .E.X.O.&.*X ./.oXkX7XOX].1X_.kX1X..d.T.n z.6X@.7.oX*Xv 1.9X1 1 &X,X# o ,.e.&.n 1.;.qXb.s.@.{ &.x oX@.f f /./.{ a.M.z -.T.-X",
"p.V.l 7XwXq.rXd P.7.f.A.Z.n.+XP.e.gX*XqX{.*  .-X..).@X . .h H.B # 1 o o B.j w 9 +.I.9 /.j.H.#.@.;X9  .u.-Xu.0.o.qXt.a u.z a.+.>.",
"m u.I.s.(.@X%.y.k oX7X/.b qXO.-Xa. .u.b.s.8XwXC.5XoX7XH.jXM.l w O & F ( n.}.N.` ..K.l }.H.y.;.4Xg :..XT.- l q 5X{ ;.l  .z k T.y.",
"hXC.j +.' /.d 9 d {.O.0X:XA.$XxXS.# kXZ.f.7XJ.].F.o zX;.:.xX-.~.>.XXG.Q u.>.p ,.X.e B.6.].o.n.s.f ) o.P.v.f.B.'.4X* O.{ | L.; d ",
"xXe.eXW.y.;XH.l +. .*XkXw jXb kXo.Q.bXM.J.P.d.'.o 1 ! E $ #XOXx i i wX: : tX| |.V tXtXeX+...<.lXl n.] r.f s.qXl O.[.+ | ' g ;.C.",
"C.z.B.{ H.[.x ;XrXu.Y.'.O.e.m.| ..bXbXXXU.*.a.@.. , ! 6 T 6.:.G.! 4./.X W Q tXtXtXC 8X#.T.%XxX1 ;X,XkXc _ n.0 B.a  X_ e.A.y.,.f.",
"7Xt.z :.H.;.0X@X-X0Xe.r +.R.k F.# bXD.4Xh.! I.= V.! CXCXbX, s ! ! q.,X8 ( 6 ( Q D tX].w.4.H.l nXc >.4Xt.a a +.q s.l.r ;.T.%.Z.c ",
",XB.3.D.h 5XH.A.I.xX` a e.4.}.s o Q.L.;XZ.i.! XXY ! bXuX7 xX! XXv.3X}.+.Q E ( & C Q tXA Z 3.6.bXnX1 % ~.c q c A.w *Xn.I.{ ;Xi...",
"= %.>.m J.b.8.a s 9 O.[.U.b.o.u.# <.~.5.(.5X6 @.# ! XXXXsXbXR j ].c.B.V.E nXC ( W &XtXiXc.Q.C . nX1 +.d.].H.7Xd e 9 a &.+ l j O.",
"..d d t.rXg 9XzXP.p.qXg.v 8.f n M.{ | jXY.8.b.U.{ Z.cXX ! bXbXb.M.y <./.: ( pX/ E tXx.T ( ; z R.* O % -.9 9 ..e.' ` +.%.s.S._ ] ",
"H.kXD.h } y.9 v.O.H.o.Z VX$.y.9Xs.m s.cXP.H.m.B ;Xk.x J.R ! bXo.$XA.W.] ' W D T ( ( &X: %.J.T.X.s.c.^.) kX:.T.h 1.| S.8.+.V.[ ..",
"n.I.3X,X_ d B._ P.o.*XVXVX&.+ ^ fXfXfX@ #Xq h fXK D q a A.Y &XD %.9 gX .nXnX&X6 tXtXtXg ' ) d c r.xX9.*Xq 9 _ f b.w | 9 d.U.j.2.",
"_ r n.1.v.,Xy.Z.t T.BXVXVXZ fXfXfXfXfX& 2.1.x 4XfXP D.- ~.5.R S X p.!.#.nX/ & tXtXtXtX#.h.F.0.b.[ = +.r u s.@Xt.%.x } b.9 m @.q.",
"/.6.eX'.c.wXkXi.d.0.VXBXdXfXfXfXfXfXfXfX- ~.9 m.6 dXP +.X X . X X X X X X ( tXtXtXtXtX;.X.' B.j p.; 4XZ.+.A.Z.+ %.~.t ` r [ s a ",
"q.` L.-.kXmXD.0.` ).VX~ dXaX3 fXfXfXfXfXL a.m.] mXfX4 ;   X X X X X X X X X X tXtXtXtXD.4X].+.U.+.[  .} ] R.y 4XU.#.+ -.F.H.Z n ",
"D.%.hX6.f D.G.&./.N VXfXaXU S fXfXaXX fXS r O.q.-.u..   X X X X X X X X X X V.v.tXtXtX& /.kX: ..H.y.}.cXY.s.w Y.; q.9 w >.@.0Xg ",
"y...}.c.2X)  .%.n 9.&XfX~ U fXfX7 U U fXfXJ  X@.H.eXN.> L < X X . P X X X X : j.0 tXtXtXtXtXy.f q p.&.a D.n.B l }.*X4XV.s.B.R.t ",
"s &.g V.,XB.q.kXc.:XfXfX& fXfXfXS U U ^ fX7 L 4.P P i (.  P P P P P P X X P P P P L z T.' a s.<X4.n qXY.m.+.a.'.f  .t t.*.E.h t.",
"}.T.rXR.,XJ.kXhXmXU.p fXfXfXfXfXS U U 6 fXfXP P P 4 P , NXP P P CX  L 4 ~ fXfXfXfXdX3 P P &X{ d X.W.s._ j h.<.9X_ F.*XN.k d h.x ",
"b cXc.'.` *.I./. .].4XfXfXfXfXfXfX8 U dXfXfX, P P P & < P P P P CXCXP 3 X X X S fXfXfXfX^ i a.M B 3.1.*X7X#.j P.U.l a.-.N.e 8.) ",
"u.OXlXT.`.rX4XkXj OX_ {.sXfXfXfXfXO @ fXfXfXfXP P P P VXP P P L 2 P P P P P   X   *.T.9 * m.h f j [.:.. q l % a {.9 _  .m ..t 1.",
"3X&.H.B.mXqX@X3Xs.w cXp.a.#.fXfXfXfXfXfXfXfXfXP P P P VXVXL P P P P P P P P , X X y.s t } f K.c ,XX   X X X X 4X}.z @.c - 1.;.4.",
"Z.*Xe ^.).s.rX: 6.o.w...Z.|.~.~ fXfXfXfXfXfXfXP G L P VXVXL P P P L P P P P X X c O OXM.y.A.p m   X X X X X | } { d l.+ }.w s. .",
"/.B.c M.} P.d *.+.C.c z kXW.D.-.` sXfXfXfXfXL K P P < VXVXVXP P J P P P P X X X X 5Xm.u.H.}.} e X X X   X X |.d j l.~.u 9 !.g 6.",
"n.4.*.5X=X*X}...O.) qX4.a a =.) y.B.;X5X: J K . MXMX/ VXVXVXP P P P P P P X X X X  X<.*.-.1.z - . X X X   . A.{.= <.u.) q.b.*.- ",
"e.e.-.=X' c v . M.4.cX}.c 0.B.hXkXF.T.4.J VXVXbXMXD VXVXVXVX$ o P P P P P X X X m.} d d 4.!.N s.L X X X X ;.f 3._ r ..Q.r b.s.O.",
"Y.e 9X7Xl 9.g T._ zXu.qXA.x P.4.zXrXu.0.L H VXVXVXVXVXVXVXVX$ G P P P P P X X X -XH.{.b.:X9 0 r q.B t 9 n.t - A.D.<.w !.N w S.z.",
"B.c.b ' 6.9 n.;Xo.R.r.@X4.*X#.n ) v.U.K L U U VXVXVXVXVXVX$ $ P P P P P P   X @ u.rXt A.k 7XP.J b.x B.a s 8.: _ -.I.=Xh + }.| a.",
"'.y.` h ~.k t.q qXp.[.- >.B + E.y A.< P U U U U ~ VXVXVX$ $ $ P P P P P P   X . u 6Xs q g ;.=.P =.%.o.R.q.d -.w.{ ,.L.,.-.@.*.9 ",
"f.+.V.-X2.%.-Xy.rXM q [ 4.m.u.e c J L U U U U U 4 $ $ $ $ $ 2 P P P P P P # X # p _ | @.6.E.m.2 %.N.w 0 n -.4.6X;Xo.` m !.u t.@X",
"o.t.X.8X4.0.h L.9.P L P L v 9 & P < U U U U U I > # aXaXaX& P P P P P P P < X d 6Xn l.c 2X5.d 6 '. .:X2.R.H.R.| b - ).c - - p B.",
"2.h 2Xh.w 3.z 5X;XP P P   P P J U U U U U U aXaX7 aXaXaXaXaXP P P P P P L 2 d X u _.{.e.P.g -.s r r &.{ - a -.qX6.) M.i.t b 1./.",
"a.w I.zXR./.;X~.zXc P P P P # U U U U U U aXaXaXaXaXaXaXaX> P P P P P P J 3 X {.%.| qXwX<.* H y.1.= R.u ~.e $._ jXt.a @.{ E.U.(.",
"V.K.c.B j.*Xc.d B.OX/.H P P P P < U U U aXaXaXaXaXaXaXaXaXP P P P P P P   2 X X c d rXhX5X1.P h u 7X_.l.@.>.-.y.x H._ 2.b.E.h.[ ",
"V.eXS.@.c.2.].x c J.'.i P < P P P P U U CXF aXaXaXaXaXaXaXP P P P P P P o , %   B.1.zX2.5 P z Z M ) -.-.B %.7.j Z.Y.d.$.4.a { >.",
"e @Xc.P.A.+.c x xXb.kXOXP P L , P P P # CXCXNXaXaXaXaXaXK P P P P P P P o , P o P P P P P !._ a.eX=X].~.} = a t.) 1X8.E.2.b 7X- ",
"p 0 f w.,X>XM.B }.(.; q.3XP P P P P P P K pXpXaXaXaXaX3 P P P P P P P P   P P P L P P P 9 ` U.,XV.D.M.q 3.u k +.s.r.= %.n /.k.9 ",
"vX*X` p.r M.E.x oXw.OX&.g P P P P P P P P P L O O $ P P P P P P P P P P G P P P P P P P P a b.zXk k._ k.3.. n _ B.- z y * l.a.s.",
"+.M.*.C.<X8.l #.7.g.(.*.O.qXP P P P P P P P P P P P P P P P P P P P P P P P P P P P P P P P r ].P 6.w *.X   _ 9.| 8.0.X.4XoX7.s.",
"=Xy.wX..-.4Xx v.vX#X%Xs.%X0XL P P P P P P P P P P P P P P P P P P P P P P P P P P P P P P P P K.P P ) l.X X + >.s.r.<.f [ (.;.K.",
"d 8.>.,.] H.h.(.qXH.6Xr c 9 + P P P P P P P P P P P P P P P P P P P P G P P P P P P P P 4 P P , P P P - X X : = '.w b y 9 -.6XH.",
"p.D...l z.q.t 7.] P.w m 4Xq m C P P P P P P P P P P P P P P P P P P L P P P P P P P P P P 4 P P P : J P P X *.>.OXu.*Xm a s ,.) ",
"e.c R.e.@.R.a.e 9.>XF.g 0 *.F.t.5 P P P P P P P P P P P P P P P P P L   P P P P P P P L K P P P J P O.$X% L K.{ [.A.#XG.+.;.>.s ",
"] M s.<X7XT.C.D. .3Xd ].{ ) &.o.s...P P P P P P K P P P P P P $ P P P P P P P P P P 4 G G G P P P P ;X>.p.H.b.Y.t l a.m t _ a y.",
"kXF.u s.n *X^.d..Xx d s.c.3Xd 1XC.&.3 3 P P P K P L 4 P P P P P P P P P P P P P L G G G G G P P P P = ;.d 9.0Xt. Xo.E.(.R.U.+ $.",
": V.C._ g 8.` D.w.9.P.Z.,.$.D.I.n V.q P P 3 , P P P P o K P P P P P P P P P , G G G G G G G P P P P G.>.` O.%.9 j.' 1.,.-.%.g g ",
"9.}.y.+.t.n.+Xi.v.V.;. Xt.9Xc.Y.f 9Xj % P K P P P % P P %   P P P P P P P G 2 G G G G G G G P P P P j.*XN.- lXz s d l.9 n ` v.U.",
"8.8Xs.lX0.O.>.|.Z b o.Z z =.o.+.eXD.|.c.P G P P   G P P P P P P P P P < G G G G G G G G G 4 s.-.t.l.e [.{.o.c.p.p.s i a -.B 0 ; ",
"f.s.%X] c z +...+.J.b S.4.w.:Xf -Xo.u j + o P   G G G P P P P P P P P o G G G G G G G G G f.y w 6X/.c >Xs.a.*Xd zXx 4.OX9 F.y.H.",
"9._ v J.w.4.P.X.Z f vX%.O.z 7.e.c.h ,XH.c.X X X X G G G K P P P P P P G G G G G G G G G G a.c L.rXk 1X-.*.@.H.n qXH.U.] c.T.l 4.",
"s.l i.gXX.V.8X-X$Xn.*Xr.F.D.3X;.j.$X .m q X X X X G G G G 4 P P P P P G G G G G G G G G j = 5X{.>.j ) 7.B.| a l >Xf u.' G.H.<.{ ",
"wXi.-.8X>.O.x.G.wX9.g.= +.a.5X#...3.-.c.M.X X X X G G G G G , P P P G G G G G G G G G 3 r.D.p.k.qXP.>.2.T.k D.wXp.T.9 s.7.'.s ) ",
"v y.x.O.+ 9.Z.c =XOXoXp.v.}._.t.k f.d ; -XX X X X G G G G G G G   , G G G G G G G G G n.- 2XE.n _ r.=.(.{ :.) n w z q { d.a.Z.1.",
"/.X.&.lX4.` f [.s C.oXkXh ~.vX<Xp _ e :.8./.  X . G G G G G G G G G G G G G G G G < 3XM h p.- 4XX.h J.'._ ) F.3.e - -.Y.n.n.u j ",
" .w.7.o.O.+.N J.Y.J.4X6.v.}.:.S.$.V.X.9 c.zX  X : c.> G G G G G G G G G G G G G X X  X' t.B qXn H.=.s.p.r.E.j D.t I._.:Xa.{ ;.m ",
"J.,X=X3X9.$.X.$.z &.o.-X4.a.b P.i.zX].j.B.{.t _.c.qX@X].0 % G G G G G G G & #.X X X { 9 s.D.R.l ) 8.5X7.8.@.: n r 1.y.9 e <.&.[ ",
"/.:.e.9.vX>XwXs.j.n w OX9X..u.:.8.a...H.z.y.N p.E.wX..h.X X X g 0 (.P P P P < X X 3.D.X.o.n.p.-.o.d _ n ~.@X[ h H.@.= c.= q [ ..",
"k.y.8X0  ._ = u M h J.} @.,.e.h i.p.@.- ` y.#X' Z.o.. X   X E.R.D.f ' z.P P P X + &.5X_ V.b.!.0.O.B.c f k w S.y c O.) y.a.r.d ' ",
"8.q.*X..b $.; eXeXrX0X8.` s 8.yXz.* qX9.q.+. .>.z .   X X } b A.= 8.w +.+.1.0 s.+ R.n.c.u -.9 J.L.= f w %.4.<.g - h f 4.q.v.c * ",
"w.wXy.x d.,.eX).n.>X@X0.o.4.F.m.wX8X1Xl.+X;.c d.w @ ; /.lXd kXu.9.k V.} l z D.a d.,Xp.&.*.jXR.l.(.O.} ` r q f O.>.&.0X:.+.x [ k ",
"9.).$.P.* M :.7.:.vX*.t wX/.t.d p (.3Xn.R.u r @X[.D.@...a r.= :...%.y.e.I.B I.T.c.9.D.&.m.-.{ = }.r q -.' { @.j $.M q %.'.1.>.B "
};
