/* XPM */
static char *d7df1786014049a2c91b772c0b16cf925HwtC6hI7g3KAVSY[] = {
/* columns rows colors chars-per-pixel */
"64 64 243 2 ",
"   c #050302",
".  c #080804",
"X  c #0A0908",
"o  c #130201",
"O  c #1A0805",
"+  c #041803",
"@  c #171A0E",
"#  c #270201",
"$  c #340300",
"%  c #3B0301",
"&  c #2B190E",
"*  c #072705",
"=  c #022C02",
"-  c #063805",
";  c #143809",
":  c #162C10",
">  c #30281B",
",  c #460200",
"<  c #550100",
"1  c #491802",
"2  c #630200",
"3  c #6D0100",
"4  c #790201",
"5  c #691A05",
"6  c #4E3314",
"7  c #51362B",
"8  c #6F3925",
"9  c #074806",
"0  c #154708",
"q  c #035403",
"w  c #035B03",
"e  c #0B5C03",
"r  c #095508",
"t  c #155A09",
"y  c #0F5412",
"u  c #195915",
"i  c #314D14",
"p  c #255E12",
"a  c #086507",
"s  c #046B03",
"d  c #0C6C0B",
"f  c #166809",
"g  c #037302",
"h  c #0B7303",
"j  c #087707",
"k  c #0B7C0A",
"l  c #177707",
"z  c #137A0B",
"x  c #186812",
"c  c #197714",
"v  c #2E710B",
"b  c #26780B",
"n  c #266918",
"m  c #267719",
"M  c #347C1A",
"N  c #305629",
"B  c #327428",
"V  c #424323",
"C  c #6B4B2B",
"Z  c #49782A",
"A  c #2C335D",
"S  c #744F48",
"D  c #6C6B55",
"F  c #606859",
"G  c #870000",
"H  c #8B0601",
"J  c #950000",
"K  c #A30100",
"L  c #AB0000",
"P  c #B20000",
"I  c #AF1405",
"U  c #E11906",
"Y  c #894D03",
"T  c #935919",
"R  c #B96B00",
"E  c #8D6034",
"W  c #986537",
"Q  c #AB7139",
"!  c #CD7A00",
"~  c #935750",
"^  c #A3735D",
"/  c #896F69",
"(  c #C17F42",
")  c #098606",
"_  c #148C03",
"`  c #188907",
"'  c #14840C",
"]  c #1C830C",
"[  c #099205",
"{  c #1A9407",
"}  c #1A8512",
"|  c #1D9613",
" . c #248809",
".. c #2C8B0C",
"X. c #348B0B",
"o. c #24940A",
"O. c #279808",
"+. c #359A0A",
"@. c #288716",
"#. c #258B12",
"$. c #368A17",
"%. c #2A9615",
"&. c #3B9C13",
"*. c #379818",
"=. c #1AA106",
"-. c #2BA406",
";. c #34A20C",
":. c #39A708",
">. c #38B108",
",. c #3CA313",
"<. c #30A915",
"1. c #39A618",
"2. c #388825",
"3. c #338C2A",
"4. c #399825",
"5. c #2EA12C",
"6. c #3BA627",
"7. c #489410",
"8. c #469819",
"9. c #44A808",
"0. c #42AC0C",
"q. c #4AAC0D",
"w. c #55AC0D",
"e. c #4AB303",
"r. c #47B709",
"t. c #4BB40C",
"y. c #56B908",
"u. c #47A917",
"i. c #56AB17",
"p. c #4BB213",
"a. c #4AB517",
"s. c #56B817",
"d. c #63BB0C",
"f. c #63BB17",
"g. c #71B811",
"h. c #48872A",
"j. c #499927",
"k. c #468A37",
"l. c #489734",
"z. c #569633",
"x. c #6C9134",
"c. c #48A727",
"v. c #57A928",
"b. c #4DB628",
"n. c #56B729",
"m. c #4AA935",
"M. c #56AA37",
"N. c #4EB435",
"B. c #58B737",
"V. c #65BA29",
"C. c #6CAD31",
"Z. c #67BA38",
"A. c #5BC407",
"S. c #5CC317",
"D. c #67C70A",
"F. c #71CF0A",
"G. c #77D507",
"H. c #67C717",
"J. c #73CA16",
"K. c #77D317",
"L. c #5CC231",
"P. c #67C527",
"I. c #75CA29",
"U. c #6ED12B",
"Y. c #79D428",
"T. c #6AC638",
"R. c #75C937",
"E. c #79D539",
"W. c #558E49",
"Q. c #6C9750",
"!. c #58AB44",
"~. c #5AB644",
"^. c #5AA556",
"/. c #68B94A",
"(. c #74B746",
"). c #6DB050",
"_. c #75B266",
"`. c #5BC148",
"'. c #6AC546",
"]. c #75C946",
"[. c #7AD347",
"{. c #6CC653",
"}. c #77CB58",
"|. c #7BD553",
" X c #7BC767",
".X c #82B93A",
"XX c #D88100",
"oX c #86D812",
"OX c #85D729",
"+X c #8FD637",
"@X c #86D938",
"#X c #93E425",
"$X c #95E82D",
"%X c #95AF65",
"&X c #C7867B",
"*X c #87D848",
"=X c #90D64F",
"-X c #82CB55",
";X c #88D859",
":X c #8CE24A",
">X c #97E54B",
",X c #99E558",
"<X c #A4EC42",
"1X c #A5E858",
"2X c #85CA67",
"3X c #91CA6E",
"4X c #89D865",
"5X c #93DB6A",
"6X c #8CDA74",
"7X c #97DA76",
"8X c #A6DA73",
"9X c #8FE569",
"0X c #98E669",
"qX c #9AE575",
"wX c #A7E96A",
"eX c #AFF36F",
"rX c #A6EA77",
"tX c #FECC5F",
"yX c #C7DE71",
"uX c #F476AB",
"iX c #4F9F9B",
"pX c #AFAAA6",
"aX c #FE8791",
"sX c #D3A18D",
"dX c #F1A795",
"fX c #FEB19E",
"gX c #9AD782",
"hX c #A4DA8D",
"jX c #99E689",
"kX c #A8EB89",
"lX c #B6F486",
"zX c #ABEC93",
"xX c #B8F49A",
"cX c #B9F3A9",
"vX c #C7F594",
"bX c #EEC9A2",
"nX c #EED2BA",
"mX c #CBF8AC",
"MX c #FEE3BA",
"NX c #C5C4C2",
"BX c #F9E9CB",
"VX c #FDEED0",
"CX c #FEFEFE",
/* pixels */
"9Xc.6X[.| i.1.m { $.6X6Xe.] '.e 9.X.v.e.O.-.%.a P.6X{ I.%.%.s !.T.E.OXP./.}.rX+.OXu.3./.v.%.f ) N.n.l.u.'.<Xb A.%.Z.R.N.' P.6X@X",
"m._ w M u.b z.=X3.].P.*.B.|.7XC. .J.P.l _ m a.].| <.N.B.J.) k  .P.y. .kX*XeXG.wXC.J.hXv.=X&.-XvXb.v.C.T.-X$.@.G.rX/.kX$.0.b !.b ",
"0.a s.B mXm h o.hXb ` I.{ m u.c + rXO.,.T.'.m  .1.^.9XU.e. .* b b $Xq ..lXV.7.Z...I.R.oXvXs.0 u.5XM.g.>X*X!.oX..6X;X=X9.zXxXf a ",
"}.T.>.b B.u.` '.{.l f #.K.x ;.{ @.b.b.7X<.1.n *.e.&.o # 7X( 1 1 9X,.v *XoXh.*.6Xz.n T.D.X.0XkX_.1X].OX7XrXoX). .*X+.O.X.E. .,XqX",
"0.-.a.l u.a e.qXo.9.u.-Xu.X.9 ;X..%.H.j./.0 J.+.9 e j B.o O 1 # B D.h O. .+X).` -Xb - {.qX*X7Xt.P.>Xn./.A.d.9.V.d rXq.wX7Xz P.s.",
"y.T.k '  .l ,.{ 5X9 ] = T.C.9.g 4X;.p.D.{.l U.X.] N.{.L.( F 1 # w l M.jXd.8XoX5XC.wX8Xi.b.0.#.a.-XO.rXl ].6XK.z s.%.E.C.s.I.u.n ",
"f ; T.} { O.+ 4X'.B.H.v.P.O.) e s.b.o.[.c.B.r  .,.x >.c.W G.XX9.`.-.xX:.+.zXo K.].K.7XH.(.jX# S.zX#Xd.*X0Xo.{.a 9 z ).z :.h M.hX",
"M.,.g [ | + [.O.k qXs.x t.` n.l kX*...;.eXtXtXV |.%.tX@ ; ,Xi i x Y.#X$ E ! 1   '.y.P.J.M.bXQ.O.kX .jXw kX=X@.+.l D.;Xy.W.eXy.xX",
"d.&.y.D.e.)  Xa N.0 n._ c zX,X;X1 cX-XR. .yX8 tXtXtXQ Q X Z.4.! G.;.c.T 5 ! , .  .p.*.I.XXbXbX..| l.y.{ /.OXp.rX;Xx [.H.{ B.l.C.",
"x Z.%.T.>.q l.n.q ;.t a q.;X>.c nXl J.4.e.T.tXF Q &X6 ( C 0Xt.R ! s % bXCXCX! B.* I.! h.;XS.bXO F.k E.+.q t.0X[.OX0X+.H.:.z y.7X",
"..s.;X{ T.n.@Xw y.c w l B.1 1 nXbX6.3.Z A tX( F @ XXE W +.}.3XM.XXR cX7 uXnXXXY XXXX8.Z.;Xn.Q.o s |.*.r.a ` xXI.A.H.9Xz D.3.N.1X",
"O.j l + +.f 9 a f 7XP.].d.;.1 nX. C Q.v.iXtX( W &XC nXE V.B.8.[.[ R bXsXXXXX! O %.6 5X(.1./.<.# c.` b.Y.|.O.9 s f 4.s.P.m :.%.* ",
"} ` S.p.%.+._ k r.o.9 - -.$ O * E.z - Q W D tXE D pX( @ '.<.9 ~.n.bXbX! . cXZ.{ P.n.7.Y.jX| | B.b l 8.n g.0Xp.P.zX5Xg 0Xr.d d %.",
"%.) V.&.u.S.3.>.l T.-.zX' ^.c.q.X.T.U.%.: ( ( ( Q F W ` ` W.A.$XO.bX! R J.x k.;XB m.D.P.cXs.m s.9Xy.$.VXZ o.J.O.n.9 y.] h d.kXH.",
"B c.I.d.9 } w n.t _ 9 q |.0.cXe.c a ) ] h tXtXtX6 ( nXnXb gX9 %.D &X8 D.a 9 D K fXh q +X@ fXfXfX^ . 7.VXVX*XO.P.z B.l { >X3XI.n.",
"r.@.b r c.| x %.r.@XH.t w +.= [ b.0.F.h.@.tXtXtXtX& ^ nX#.!.q.X C R b.N.- D.I fX5Xx 1.3.& fXfXfXfXfXZ VXVXBXV.t '.y.5Xv.,.n.e _ ",
"a s ) r  .t ~.@.* B.A.&.Z.4X; p.j B.' ..;.tXtXtXtXtX( X X X X X X   X X +.P dX6 m.9 ~.- fXfXfXfXfXfXfXdXVXVX6.A.w.kX0Xu.'.eX6./.",
"n Z F.F.-.+ #.U.4Xy I.} } b _ ;.U.*.[.;XF.tXtXtXtXX X X X X X X X X X   ; 4 fXmX] m.a.L fXfXfXfXfX3 aXdX~ VX).{ q.D.mXkX+.L.} u.",
"g 0Xm >.w 0 a.; Y.e s.Y.xX}.y.H...@ kX/.& tXtXtXv.V.X X X X X X X X X X   X u.O.q.o.y S fX  uXfXfX~ U aXfXVXN /.%.G.D.f 4.zX%.D.",
"t E.B.s.P.;X[.}.f B n.D.d &.p.q l e.tXtXtXtXtX0 j.: X X X X P . X X < L @ L.lXF.@. XJ fXfXU U 7 fXfXU ~ fX^ 9.n %.#.) 4Xc.|...y.",
"t.h E.*.t.t @.f '.a.%.m.U.rXn $.<Xt.r ) T.z P P P P P X X P P P L P P o (.i P P *.L 7 fX^ U U 8 fXfXfX& fXfX>Xc.8X9.Z.,Xs.s ,.d ",
"x k.d k M.[.F._ 9X<.h.j _ s.W.X.s | &XK P 3 dXfXfXfXfX~ 4 P   CXP P L NX, P 3 P P P fXfX7 U U S fXfXfXfXfXp U.mXcXkXH.,X].rXT.{.",
") u.e N.-.a.l U.H.j | 7X*Xu.3.B M t.i &XfXfXfXfXS . X X 2 P CXCXP P P P < > P P P , fXfXdXU C fXfXfXfXfXfX4X].] /.P.%.| '.c.cXb ",
">.0 ..c ` { 9 '.a , f q . <.|.) l h m.* - T.*.  X . P P P P P 2 L P P P VXP P P P fXfXfXfXO @ fXfXfXfXsX{.' OXj kX4XrX~.R.lXOXu.",
"4.+.1.- c @.c }.6X. X X X   X =Xx K.c } t s D.X X , P P P P P P P P L VXVXP P P P fXfXfXfXfXfXfXfXfX] a.p.cXw s.3X+X9XmXZ.H.&.3X",
" .s.a }.+ l.h ` { | X X X X X . m p A.y.M.I.X l X X P P P P L P P P L VXVXP L G P fXfXfXfXfXfXfX~ /.|.Z.@.y...1.: qXn.(.^.e *XZ.",
"6.g ~.9 u !.l.j f }.X X   X X X q } }.H.u.M.5X  X X X P P P P K P P VXVXVX< P P P P fXfXfXfXsX_ -.F.Q.jXz c V.$.4.l V.} M.c n./.",
"= 4.b.0.) p.<.= {.y..   X X X . - z 1.-.4.%.2X. X X X P P P P P P P VXVXVX/ MXBXX K J : ,X:XB.y.) =.t a 4.qXk O...}.*X=X5X4.4.n.",
"o.s.S.y W.%.r { 3.h ;.X X X . L H.N N.*.s d @.m.X X X P P P P P o $ VXVXVXVXD MXbXBXBXJ 4.T.F.kXjXB.,.c |.mX5.M.+ v c ' ;X-.y.e.",
"z.S.r N !.w 1.D.A.- t n.0 t B t.r ; 9 >Xb.{.S.;XX X X P P P P P G $ VXVXVXVXVXVXVXVX4 P 0.>.jXzX4.n.f A.0X,.zX_ Z.g 9.l 7X9Xa I.",
"a.} }.* j =XI.-._ : *.s s B.x b.J L.7Xz A.u wXu.X X X P P P P P P $ $ VXVXVXVXVXVXU U L L U.v.) x %.[.c.@Xr.R. .;XB.9 6.k b u.Z.",
"9 *.@.-.;.P.,.` y.-.x q.R.o.%.=.P | <.s w s 6Xu X X . P P P P P P $ $ $ VXVXVX~ U U U U P < A.y @X+ B :.- [.a.qXq r.z ~.g ` y.'.",
"+Xp.u N.m ` O.;X7X4.O.n 9 w n.%.< m.E.6.@.| [ p # . # P P P P P P 2 $ $ $ $ $ 4 U U U U U L J l e 1.m.4.[ w v kXy.-XO.3.*XZ.+.f.",
"B.p - - n /.- l | T.J.T.2.,Xb '.6 d 5.4Xf l.n 6Xd . < P P P P P P P & aXaXaX# & I U U U U U < L & 9 v L P P P e.n.f 0.3.8XX.p. .",
"/.1.b u p.M.) 6.7X;.a 9 { &.r r s -.g P.e.{._.u X d 2 L P P P P P P aXaXaXaXaX7 aXaXU U U U U U J P P   P P P 4X4Xz 4.w h.2Xh 2.",
"(.U.E.{ @.x t.hX{ $.r ~.y E.* 1.A.H * 1.1XjX| *.{.X 2 J P P P P P P > aXaXaXaXaXaXaXaXU U U U U U # P P P L c zX`.;X/.R.xXP.a a.",
"[ 2.Y.b.2._ d.x y.=.>.%.k._.gXu l P 1.6XhXkXh c X X 2   P P P P P P P aXaXaXaXaXaXaXaXaXU U U < P P P P J /.OXB.f b.*Xj.M c.K.V.",
">.{ a 4.*.d.Y.B.j 7.@.m -.+.[ v Z l P 5 M zX1.B.. % < o P P P P P P P aXaXaXaXaXaXaXF CXU U P P P P < P i (.K.c d (.3.u.@.s.eXV.",
"- gXb 2.E.8.wX) y.a = #.B.].:XlXs.` M.P P P P P o P , o P P P P P P P L aXaXaXaXaXNXCXCX# P P P , P P P @XjXb.xXy l X.S.I.c.+Xe ",
"9 k.'.N -.= r.s.+.j u 3.w M.D.V.:XI.` - P P P L P P L   P P P P P P P P 3 aXaXaXaXpXpXP P P P P P P P 3Xt.- (.-XB Z.>X,Xq.h 0 p ",
"p.p.l.- 0 z - M.[ n . h.k.) k.k zXL.a P P P P P P P P G P P P P P P P P P P $ @ O P P P P P P P P P P g &.Y.w.oXx R.!.r i. .*XvX",
"f.&.K.9X%.0.8.| 9.`   X *.w 1.P '.r P P P P P P P P P P P P P P P P P P P P P P P P P P P P P P P L rX..&.(.g.8.#.c u.$XC.*.M.+.",
"K.+.(.) f <.y.s.>.+ X X M.) L P K.L P P P P P P P P P P P P P P P P P P P P P P P P P P P P P P P P wX_.s.%X#XvXv.t 5X+...wXt.=X",
"P.5X-.9 0 c a '.= : X   - L P P 1 L P 4 P P P P P P P P G P P P P P P P P P P P P P P P P P P P P + - } q 6XJ.7X}.2.H.] u.>.8.d ",
") 0.s d m *Xc.OX9.<.  P P J : P P P 3 P P P P P P P P P P P P P P P P P P P P P P P P P P P P P C b q 4Xc w P.' 7.f q.j.` ..D.i.",
"a :.;.-.G.oXA.[.{ K.L % $Xo.P J P P P K P P P P P P P P   P P P P P P P P P P P P P P P P P P 5 S.A.*.0 g F.1Xe.e p.].M 9.R.c e.",
"y.s ` t m a.` t Y.b.H.p.>.:XP P P P G G G 4 P P P P P P P P P P $ P P P P P P K P P P P P P M i.{ *.' { ].f %X .D.C.P.8X<Xs.M ' ",
"$.+ U.R.(.Y.@.}.t.qX,.h &.* P P P P G G G G G K P P P P P P P P P P P P P 3 P P K P P P 3 3 ,.C.1Xj 3Xc.s.h x .Xs.^.*Xn s.t F.zX",
"s g o.-.,.,.` j.9 %.+.) r.G.P P P P H G G G G G G , L P P P P P P P P K o P P P P , 3 P P w V.n I.H.$.,./.J.,.e.D.` 8.h ) B.V.; ",
"Y.M.` n 9 W.j s h kX- N.*Xh.P P P L G G G G G G G 2 G P P P P P P P   % P P % P P P K P % j 9Xf I.c.,Xr.2XO.V.v.i.+Xv.t.+.y.-Xq.",
"; 0 B -.w u j p.t.c.o.{.[.a l.r.-.S.4 G G G G G G G G G < P P P P P P P P P G   P P G P c.|.D.eX;.O.| j Z o. .B =X>.{ t.eXy.8X8.",
"D.s.D.9 #X4.x hXc *Xa.s.:Xc {.6Xy ; s.G G G G G G G G G O P P P P P P P P G G G   P o + d u o.-Xf *Xw.4.S.b I.7...$.' l b %XV.f.",
"4.z T.v.l R.J.qXx S.@.4.-.<Xz 8XL.l a.G G G G G G G G G G P P P P P P K G G G X X X . c.H.,Xh c.r.7.k +...vXv Z X.P.*.y.J.v ' 9.",
"{ <.H.G.z p.d >Xx a %.B.&.k ) >.{.5X= j G G G G G G G G G P P P P P G G G G G X X X . r m } $X8.:.3XD.F.r.@Xs.#X-XwXP...gXi.' p.",
") h '.X.s.r T.t.eXD.j T.$.>.P.qXl.p.A.r.3 G G G G G G G G G P P P % G G G G G X X X X M.6.+.3.O.#.5Xa.&.- g.:.wXJ.x.O.>.8X+.i.wX",
"1.Z.a.f.{ w l w m k >.` (.=.r.{ n [.2X- n.G G G G G G G G G ,   G G G G G G G X X X o -X; x f.z p.).}.v.p.Y.OX;Xc C.&.+ o.x.y.M ",
"k y n.n.Y.<.- e @.F.) _ '.J.h X.4X= u.h 2.3X< G G G G G G G G G G G G G G H G X X   /.u.:.q  .f $XvX~.l kXoXC.s [.l l *.vX&. .(.",
"m :.} a.:X).I.t D.h [.y.p.s.{ H.n qXB y.l }.X X G G G G G G G G G G G G G > c.: X . zXc.9 ..I.M H.;.}.v.6.4XJ.I.J.N O.+.o.7.w. .",
"[ &.<.r q A.1.0 v : @.8.7.0X,.) ' R.D.n.9 { X   X #.& G G G G G G G % 0 ].@XqXc._.y /.B.j.].zXi.U.b q.3.}.O.;.k $.+.$.9.3X=X,XJ.",
"..[ 9 = c.= @.H.l ) @X!.c l d o.O.p.s.o.X.F.3.X X < P P P P Z.0 d X . X h. .wXE.p.N f.l.D. .s.*.,.u...0XOXs N 8.s.wX>XvX+.r.:./.",
"' d A.a.y.) <.l y S.r z x x B.O.0.~.c.V._ 5X*.+ X P P P z.} f D.I.E.X . X .  .Z.z #Xy.` - @.i.i.g e.,...] J.j M 0 - [ ] 0 wXy.W.",
"= c N.0.*.f s - g -.4.%.e d = L.J.9 -.p c.N.I.* s.9 1.&.O.q 8.= D.c } X X . X h >.o.+.w.:.rX* h.yXc.g z 8.0XrXeXeX; $.b  .*X9.u.",
"k [ f +.;.0X&.>.-.d q r { ] -./.l.T.jX*.,.t.1Xd.w D.) z } C.k 9.u.jXd lX(.: : q d.c ;.+Xl.1XwXrXm.F.j. .:.@X<XB.).eX,.d.x y.wXw.",
"m r.,./.X.r @.3.d @.{ ` -.e 9 }.= O.O.m.&.D.,.u.Z.I.Z Y.e.y.%.+.:.= r.a #.@.D.[.@Xe u R.n.3X/.p h a./.1Xt *.vX9.7.,.M * V.&.).7."
};
